<?xml version="1.0" encoding="utf-8"?>
<!-- Generator: Adobe Illustrator 21.0.0, SVG Export Plug-In . SVG Version: 6.00 Build 0)  -->
<svg version="1.1" id="Icon" xmlns="http://www.w3.org/2000/svg" xmlns:xlink="http://www.w3.org/1999/xlink" x="0px" y="0px"
	 viewBox="0 0 64 64" style="enable-background:new 0 0 64 64;" xml:space="preserve">
<style type="text/css">
	g:target{display:inline;}
	.st0{display:none;}
	.st1{display:inline;fill:none;stroke:#757575;stroke-width:3.042;stroke-linecap:round;stroke-linejoin:round;}
	.st2{display:inline;fill:none;stroke:#757575;stroke-width:2.9088;stroke-miterlimit:10;}
	.st3{display:inline;fill:none;stroke:#757575;stroke-width:2.9088;stroke-linecap:round;stroke-linejoin:round;}
	.st4{display:inline;fill:none;stroke:#757575;stroke-width:2.9088;stroke-linejoin:round;}
	.st5{display:inline;fill:none;stroke:#757575;stroke-width:3;stroke-linecap:round;stroke-linejoin:round;}
	.st6{display:inline;fill:none;stroke:#757575;stroke-width:3;stroke-linejoin:round;stroke-miterlimit:10;}
	.st7{display:inline;}
	.st8{fill:none;stroke:#757575;stroke-width:3;stroke-linejoin:round;stroke-miterlimit:10;}

		.st9{display:inline;fill:none;stroke:#757575;stroke-width:3.0512;stroke-linecap:round;stroke-linejoin:round;stroke-miterlimit:10;}

		.st10{display:inline;fill:none;stroke:#757575;stroke-width:3.0486;stroke-linecap:round;stroke-linejoin:round;stroke-miterlimit:10;}

		.st11{display:none;fill:none;stroke:#757575;stroke-width:2.9944;stroke-linecap:round;stroke-linejoin:round;stroke-miterlimit:10;}

		.st12{display:none;fill:none;stroke:#757575;stroke-width:2.9931;stroke-linecap:round;stroke-linejoin:round;stroke-miterlimit:10;}
	.st13{display:none;fill:none;stroke:#757575;stroke-width:2.9427;stroke-miterlimit:10;}
	.st14{display:none;fill:#FFAD00;}
	.st15{display:none;fill:none;stroke:#FFAD00;stroke-width:2.9091;stroke-linejoin:round;stroke-miterlimit:10;}
	.st16{display:inline;fill:none;stroke:#757575;stroke-width:2.8932;stroke-miterlimit:10;}
	.st17{display:inline;fill:none;stroke:#757575;stroke-width:2.9483;stroke-miterlimit:10;}

		.st18{display:inline;fill:none;stroke:#757575;stroke-width:3.8209;stroke-linecap:round;stroke-linejoin:round;stroke-miterlimit:10;}
	.st19{display:inline;fill:none;stroke:#757575;stroke-width:2.9104;stroke-linejoin:round;stroke-miterlimit:10;}
	.st20{display:inline;fill:none;stroke:#757575;stroke-width:2.9091;stroke-miterlimit:10;}

		.st21{display:inline;fill:none;stroke:#757575;stroke-width:2.9091;stroke-linecap:round;stroke-linejoin:round;stroke-miterlimit:10;}
	.st22{display:inline;fill:#757575;}
	.st23{font-family:'HelveticaNeue-Medium';}
	.st24{font-size:17.9091px;}
	.st25{display:inline;fill:none;stroke:#757575;stroke-width:3;stroke-miterlimit:10;}

		.st26{display:inline;fill:none;stroke:#757575;stroke-width:2.9832;stroke-linecap:round;stroke-linejoin:round;stroke-miterlimit:10;}
	.st27{fill:#757575;}

		.st28{display:inline;fill:none;stroke:#757575;stroke-width:3.2167;stroke-linecap:round;stroke-linejoin:round;stroke-miterlimit:10;}
	.st29{display:inline;fill:none;stroke:#757575;stroke-width:3.2167;stroke-linejoin:round;stroke-miterlimit:10;}
	.st30{display:inline;fill:none;stroke:#757575;stroke-width:3.0305;stroke-miterlimit:10;}
	.st31{display:inline;fill:none;stroke:#757575;stroke-width:3.0868;stroke-linejoin:round;stroke-miterlimit:10;}
	.st32{display:inline;fill:none;stroke:#757575;stroke-width:3.0749;stroke-linejoin:round;stroke-miterlimit:10;}
	.st33{display:inline;fill:#8CB8C2;}

		.st34{display:inline;fill:none;stroke:#757575;stroke-width:3.0699;stroke-linecap:round;stroke-linejoin:round;stroke-miterlimit:10;}
</style>
<g id="quick-booking" class="st0">
	<line class="st1" x1="2.4" y1="41.8" x2="22.4" y2="41.8"/>
	<line class="st1" x1="14.4" y1="26.6" x2="22.4" y2="26.6"/>
	<line class="st1" x1="10.4" y1="34.2" x2="22.4" y2="34.2"/>
	<polyline class="st1" points="35.1,22.2 35.1,34.7 47.6,45.6 	"/>
	<line class="st1" x1="32.5" y1="1.5" x2="37.8" y2="1.5"/>
	<line class="st1" x1="35.1" y1="1.5" x2="35.1" y2="9.4"/>
	<line class="st1" x1="56.4" y1="9.4" x2="60.4" y2="13.4"/>
	<line class="st1" x1="58.4" y1="11.4" x2="53.2" y2="16.5"/>
	<path class="st1" d="M35.1,9.4c14.6,0,26.5,11.8,26.5,26.5c0,14.6-11.8,26.5-26.5,26.5c-6.1,0-12-2-16.8-5.9"/>
</g>
<g id="cancellation" class="st0">
	<path class="st2" d="M62.5,28.3c0.1,2.6-1.9,4.8-4.6,4.9H47.3c-2.6-0.1-4.7-2.2-4.7-4.8v-0.1V25c-0.1-2.6,1.9-4.8,4.6-4.9h10.7
		c2.6,0.1,4.7,2.2,4.6,4.8V25L62.5,28.3z"/>
	<circle class="st3" cx="49.3" cy="26.5" r="1.4"/>
	<circle class="st4" cx="29.1" cy="49.5" r="10.5"/>
	<line class="st3" x1="24.7" y1="53.9" x2="33.5" y2="45"/>
	<line class="st3" x1="33.5" y1="53.9" x2="24.7" y2="45"/>
	<path class="st4" d="M47.2,33.2c-2.6-0.1-4.7-2.2-4.6-4.8v-0.1V25c-0.1-2.6,1.9-4.8,4.6-4.9h10v-6.7C57.2,8.2,53,4.1,48,4H6.8
		C3.9,4,1.5,6.5,1.5,9.4l0,0v34.5c0,2.9,2.4,5.3,5.3,5.3l0,0h11.8v0.3c0,5.8,4.8,10.5,10.5,10.5c5.8,0,10.5-4.7,10.5-10.5v-0.3h8.3
		c5.1,0,9.3-4.2,9.3-9.2v-6.7L47.2,33.2L47.2,33.2z"/>
</g>
<g id="location" class="st0">
	<path class="st5" d="M55.8,26.7C55.8,45.3,32,62.5,32,62.5S8.2,45.3,8.2,26.7C8.2,12.7,18,1.5,32,1.5S55.8,12.7,55.8,26.7z"/>
	<circle class="st5" cx="32" cy="25.3" r="13.3"/>
</g>
<g id="search" class="st0">
	<circle class="st6" cx="26.9" cy="26.9" r="24.9"/>
	<line class="st6" x1="44.4" y1="44.4" x2="62" y2="62"/>
</g>
<g id="pax" class="st0">
	<g class="st7">
		<circle class="st8" cx="17.6" cy="11.1" r="9.1"/>
		<path class="st8" d="M32,25.5H3.3c0,10.6,4.3,16.8,9.1,19.5v17h10.5V45C27.7,42.3,32,36.1,32,25.5z"/>
	</g>
	<g class="st7">
		<g>
			<circle class="st8" cx="46.3" cy="11.1" r="9.1"/>
			<path class="st8" d="M46.3,24.2C38.4,24.2,32,35.9,32,49h9.1v13h10.5V49h9.1C60.6,35.9,54.2,24.2,46.3,24.2z"/>
		</g>
	</g>
</g>
<g id="date" class="st0">
	<polyline class="st9" points="12.2,6.8 1.5,6.8 1.5,62.5 62.5,62.5 62.5,6.8 51.8,6.8 	"/>
	<rect x="12.2" y="1.5" class="st9" width="7.9" height="10.7"/>
	<rect x="43.9" y="1.5" class="st9" width="7.9" height="10.7"/>
	<line class="st9" x1="20.1" y1="6.8" x2="43.9" y2="6.8"/>
	<line class="st9" x1="1.5" y1="20.1" x2="62.5" y2="20.1"/>
</g>
<g id="time" class="st0">
	<path class="st10" d="M62.5,32c0,16.9-13.6,30.5-30.5,30.5S1.5,48.9,1.5,32S15.1,1.5,32,1.5S62.5,15.1,62.5,32z"/>
	<polyline class="st10" points="30.7,17.4 30.7,32 46.6,46.6 	"/>
</g>
<polyline id="right-arrow" class="st11" points="14.8,62.5 49.2,32 14.8,1.5 "/>
<polyline id="left-arrow" class="st12" points="49.2,1.5 14.8,32 49.2,62.5 "/>
<polyline id="down-arrow" class="st13" points="1.1,14.6 32,49.5 62.9,14.6 "/>
<polygon id="star-filled" class="st14" points="46.3,37.7 63.5,23.4 43.5,23.4 32,0.5 20.6,23.4 0.5,23.4 17.8,37.7 9.1,63.5
	32,47.8 54.9,63.5 "/>
<polygon id="star-unfilled" class="st15" points="45.9,37.5 62.5,23.7 43.2,23.7 32,1.5 20.9,23.7 1.5,23.7 18.2,37.5 9.8,62.5
	32,47.3 54.2,62.5 "/>
<g id="filter" class="st0">
	<circle class="st16" cx="9.2" cy="42.1" r="7.6"/>
	<circle class="st16" cx="32" cy="21.9" r="7.6"/>
	<line class="st16" x1="32" y1="9.2" x2="32" y2="14.3"/>
	<line class="st16" x1="9.2" y1="34.5" x2="9.2" y2="9.2"/>
	<circle class="st16" cx="54.8" cy="42.1" r="7.6"/>
	<line class="st16" x1="54.8" y1="34.5" x2="54.8" y2="9.2"/>
	<line class="st16" x1="32" y1="54.8" x2="32" y2="29.5"/>
</g>
<g id="cancel" class="st0">
	<line class="st17" x1="1" y1="63" x2="63" y2="1"/>
	<line class="st17" x1="1" y1="1" x2="63" y2="63"/>
</g>
<g id="cuisine" class="st0">
	<line class="st18" x1="59.4" y1="47.7" x2="4.6" y2="47.7"/>
	<line class="st18" x1="1.9" y1="47.7" x2="62.1" y2="47.7"/>
	<circle class="st18" cx="32" cy="20.3" r="3.9"/>
	<path class="st18" d="M8.5,47.7c0-13,10.5-23.5,23.5-23.5s23.5,10.5,23.5,23.5"/>
</g>
<g id="favourite" class="st0">
	<path class="st19" d="M32,62.6c0,0,29.3-22.7,29.3-44.1c0-21.5-26-23.1-29.3-1.6C28.7-4.8,2.7-3.1,2.7,20.2
		C2.7,43.2,32,62.6,32,62.6z"/>
</g>
<g id="insider-tips" class="st0">
	<path class="st18" d="M49.3,30.5c0-9.5-7.7-17.2-17.2-17.2S14.9,21,14.9,30.5c0,8,5.4,14.8,12.9,16.6v3.3h8.6v-3.3
		C43.7,45.3,49.3,38.6,49.3,30.5z"/>
	<line class="st18" x1="33.4" y1="62.1" x2="30.6" y2="62.1"/>
	<line class="st18" x1="36.3" y1="56.4" x2="27.7" y2="56.4"/>
	<line class="st18" x1="32" y1="1.9" x2="32" y2="7.6"/>
	<line class="st18" x1="60.7" y1="30.5" x2="55" y2="30.5"/>
	<line class="st18" x1="3.3" y1="30.5" x2="9.1" y2="30.5"/>
	<line class="st18" x1="9.7" y1="8.2" x2="15.8" y2="14.3"/>
	<line class="st18" x1="54.4" y1="8.2" x2="48.2" y2="14.3"/>
</g>
<g id="concierge-24x7" class="st0">
	<path class="st20" d="M44.5,62.5c-2.1,0-4.8-0.6-7.6-1.6c-6.3-2.3-13.1-7.1-19.2-13.2c-6.2-6.2-10.9-13-13.3-19.3
		c-2.1-5.7-2.1-10.4,0-12.6c0.3-0.3,0.7-0.7,1-1.1c1.9-2,4.3-4.4,7.2-4.3c2,0.1,4,1.4,6,3.9c5.9,7.4,3.3,10.1,0.2,13.1L18.1,28
		c-0.5,0.5-1.5,2.8,7.4,11.7c2.9,2.9,5.3,5,7.3,6.3c1.3,0.9,3.5,2,4.4,1.2l0.6-0.6c3-3.1,5.6-5.7,13.1,0.2c2.5,1.9,3.8,4,3.9,6
		c0.1,2.9-2.2,5.1-4.4,7.2c-0.4,0.3-0.7,0.7-1,1C48.4,62,46.6,62.5,44.5,62.5L44.5,62.5z"/>
	<path class="st21" d="M25,4.4c3.5-1.8,7.4-2.9,11.6-2.9c13.6,0,24.5,11,24.5,24.5c0,8.4-4.3,15.9-10.8,20.3"/>
	<text transform="matrix(1 0 0 1 29.9805 31.5576)" class="st22 st23 st24">24</text>
</g>
<g id="share" class="st0">
	<polyline class="st21" points="47.4,32.2 62.1,19.3 47.4,6.3 	"/>
	<path class="st20" d="M28.7,1.5H9.6C5.1,1.5,1.5,5,1.5,9.6v44.8c0,4.5,3.6,8.1,8.1,8.1h44.8c4.5,0,8.1-3.6,8.1-8.1V41.3v-1.6"/>
	<path class="st20" d="M21.8,40.1c0,0-1.8-20,17.8-20.9h22.5"/>
</g>
<g id="deal" class="st0">
	<path class="st25" d="M56,43.4c1.3,5.6-2.1,11.3-7.7,12.7c-1.6,0.4-3.3,0.4-5,0c-1-0.2-1.9,0.2-2.4,1c-3,5-9.5,6.5-14.5,3.4
		c-1.4-0.9-2.6-2-3.4-3.4c-0.5-0.9-1.5-1.2-2.4-1C15.1,57.4,9.4,53.9,8,48.3c-0.4-1.6-0.4-3.3,0-5c0.2-1-0.2-1.9-1-2.4
		c-5-3-6.5-9.5-3.4-14.5C4.5,25,5.6,23.8,7,23c0.9-0.5,1.2-1.5,1-2.4C6.8,15,10.2,9.3,15.8,7.9c1.6-0.4,3.3-0.4,5,0
		c1,0.2,1.9-0.2,2.4-1c3-5,9.5-6.5,14.5-3.4C39,4.4,40.1,5.6,41,7c0.5,0.9,1.5,1.2,2.4,1C49,6.6,54.7,10.1,56,15.7
		c0.4,1.6,0.4,3.3,0,5c-0.2,1,0.2,1.9,1,2.4c5,3,6.5,9.4,3.5,14.4c-0.9,1.4-2.1,2.7-3.5,3.5C56.2,41.5,55.8,42.4,56,43.4z"/>
	<circle class="st25" cx="27.4" cy="27.4" r="2.5"/>
	<circle class="st25" cx="36.2" cy="36.2" r="2.5"/>
	<line class="st25" x1="18.9" y1="44.7" x2="45.9" y2="17.7"/>
</g>
<g id="restaurant" class="st0">
	<rect x="8.1" y="22.7" class="st26" width="26.5" height="39.8"/>
	<polygon class="st26" points="55.9,62.5 34.7,62.5 34.7,22.7 29.3,22.7 29.3,1.5 55.9,1.5 	"/>
	<rect x="42.6" y="54.5" class="st26" width="8" height="8"/>
	<rect x="13.4" y="54.5" class="st26" width="8" height="8"/>
	<line class="st26" x1="8.1" y1="28" x2="18.7" y2="28"/>
	<line class="st26" x1="8.1" y1="33.3" x2="16.1" y2="33.3"/>
	<line class="st26" x1="29.3" y1="12.1" x2="40" y2="12.1"/>
	<line class="st26" x1="29.3" y1="6.8" x2="45.3" y2="6.8"/>
	<line class="st26" x1="29.3" y1="17.4" x2="37.3" y2="17.4"/>
	<line class="st26" x1="8.1" y1="38.6" x2="13.4" y2="38.6"/>
</g>
<g id="location-dropdown" class="st0">
	<g class="st7">
		<path class="st27" d="M32,1.5c-11.4,0-20.7,8.9-20.7,19.9S32,62.5,32,62.5s20.7-30.1,20.7-41.1S43.4,1.5,32,1.5z M32,29.3
			c-4.6,0-8.3-3.6-8.3-8s3.7-8,8.3-8s8.3,3.6,8.3,8C40.3,25.8,36.6,29.3,32,29.3z"/>
	</g>
</g>
<g id="grid-view" class="st0">
	<rect x="1.6" y="4.8" class="st28" width="60.8" height="54.4"/>
	<line class="st29" x1="21.3" y1="4.8" x2="21.3" y2="59.2"/>
	<line class="st28" x1="62.4" y1="32" x2="1.6" y2="32"/>
	<line class="st29" x1="42.7" y1="3.7" x2="42.7" y2="58.1"/>
</g>
<g id="list-view" class="st0">
	<path class="st30" d="M57.7,61.9H6.4c-2.4,0-4.4-2-4.4-4.4V6.2c0-2.4,2-4.4,4.4-4.4h51.3c2.4,0,4.4,2,4.4,4.4v51.3
		C62.1,59.9,60.1,61.9,57.7,61.9z"/>
	<line class="st31" x1="61.4" y1="20.4" x2="2" y2="20.4"/>
	<line class="st32" x1="62.1" y1="43.6" x2="3.2" y2="43.6"/>
</g>
<g id="eazyrupees" class="st0">
	<path class="st33" d="M21.5,34.6c1.2,0,2.3,0,3.3-0.1C30.6,32.3,39,32,42.5,32v-1.3l0,0l0,0v-4.6c-4.7,2.5-14.5,3.3-21,3.3
		s-16.3-0.8-21-3.3v4.6C0.7,32,8.4,34.6,21.5,34.6z"/>
	<path class="st33" d="M21.5,18.9c13.1,0,20.8-2.6,21-3.9v-4.6c-4.7,2.5-14.5,3.3-21,3.3s-16.3-0.8-21-3.3V15
		C0.7,16.3,8.4,18.9,21.5,18.9z"/>
	<path class="st33" d="M0.5,38.6c0.2,1.2,6.9,3.6,18.4,3.9v-1.3c0-1.6,0.6-2.9,1.6-3.9C14,37.2,4.9,36.4,0.5,34V38.6z"/>
	<path class="st33" d="M21.5,11c13.1,0,20.7-2.6,21-3.9c0-4.5-10.9-6.6-21-6.6s-21,2.1-21,6.6C0.7,8.4,8.4,11,21.5,11z"/>
	<path class="st33" d="M21.5,26.8c13.1,0,20.8-2.6,21-3.9v-4.6c-4.7,2.5-14.5,3.3-21,3.3s-16.3-0.8-21-3.3v4.6
		C0.7,24.1,8.4,26.8,21.5,26.8z"/>
	<path class="st33" d="M0.5,46.4c0,4.1,9.1,6.2,18.4,6.5V45c-6.3-0.2-14.3-1-18.4-3.2V46.4z"/>
	<path class="st33" d="M21.5,41.2c0.5,1.3,9.1,3.9,21,3.9s20.4-2.6,21-4c-0.1-5.7-15.3-6.5-21-6.5C36.8,34.6,21.5,35.6,21.5,41.2z"
		/>
	<path class="st33" d="M21.5,52.2v4.7c0,5.7,15.3,6.6,21,6.6s21-0.9,21-6.6v-4.7c-5.1,2.7-16.3,3.4-21,3.4S26.6,54.9,21.5,52.2z"/>
	<path class="st33" d="M42.5,47.8c-4.7,0-15.9-0.7-21-3.4v4.7c0.5,1.3,9.1,3.9,21,3.9s20.5-2.6,21-4v-4.7
		C58.4,47.1,47.2,47.8,42.5,47.8z"/>
</g>
<g id="play" class="st0">
	<ellipse class="st34" cx="32" cy="32" rx="30" ry="30"/>
	<polygon class="st34" points="23.8,18.4 23.8,45.6 48.4,32 	"/>
</g>
<g id="cost_for_two" class="st0">
	<path class="st27" d="M54.3,9.7c-6-6-13.9-9.2-22.3-9.2S15.7,3.8,9.7,9.7c-6,6-9.2,13.9-9.2,22.3s3.3,16.3,9.2,22.3
		c6,6,13.9,9.2,22.3,9.2s16.3-3.3,22.3-9.2s9.2-13.9,9.2-22.3S60.2,15.7,54.3,9.7L54.3,9.7z M52.9,52.9c-5.6,5.6-13,8.7-20.9,8.7
		s-15.3-3.1-20.9-8.7S2.5,39.9,2.5,32s3.1-15.3,8.6-20.9c5.6-5.6,13-8.6,20.9-8.6s15.3,3.1,20.9,8.6c5.6,5.6,8.7,13,8.7,20.9
		C61.5,39.9,58.5,47.3,52.9,52.9L52.9,52.9z"/>
	<path class="st27" d="M20.2,16.3v2h7.9c0,0,2.5,0,5,1c1.7,0.7,2.9,1.7,3.7,2.9H20.2v2h17.5c0.2,0.6,0.2,1.3,0.2,2
		c0,2.4-0.6,4.5-2.2,5.7c-3,2.3-7.5,2.2-7.7,2.2h-7.9v2.4l15.1,14.1l1.3-1.4l-14-13.1h5.4c0.2,0,5.6,0.5,9.1-2.7
		c1.9-1.7,2.8-4.1,2.8-7.1c0-0.7-0.1-1.4-0.2-2h4.1v-2H39c-0.8-1.8-2.1-3-3.6-3.9h8.4v-2L20.2,16.3L20.2,16.3z"/>
</g>
</svg>
