<?xml version="1.0" encoding="utf-8"?>
<!-- Generator: Adobe Illustrator 21.0.0, SVG Export Plug-In . SVG Version: 6.00 Build 0)  -->
<svg version="1.1" id="Layer_1" xmlns="http://www.w3.org/2000/svg" xmlns:xlink="http://www.w3.org/1999/xlink" x="0px" y="0px"
	 viewBox="0 0 64 64" style="enable-background:new 0 0 64 64;" xml:space="preserve">
<style type="text/css">
	g:target{display:inline;}
	.st0{display:none;}
	.st1{display:inline;fill:#FF0062;}
	.st2{display:inline;}
	.st3{display:inline;fill:#FFCF0D;}
	.st4{display:inline;fill:#F94616;}
	.st5{display:inline;opacity:0.2;}
	.st6{fill:#FFFFFF;}
	.st7{display:inline;fill:none;}
	.st8{display:inline;fill-rule:evenodd;clip-rule:evenodd;fill:#F94616;}
	.st9{display:inline;fill-rule:evenodd;clip-rule:evenodd;fill:#DD4B40;}
	.st10{display:inline;opacity:0.55;fill-rule:evenodd;clip-rule:evenodd;fill:#AA5646;}
	.st11{display:inline;fill-rule:evenodd;clip-rule:evenodd;fill:#D3EDF8;}
	.st12{display:inline;fill-rule:evenodd;clip-rule:evenodd;fill:#B8E7F8;}
	.st13{fill-rule:evenodd;clip-rule:evenodd;fill:#F94616;}
	.st14{fill-rule:evenodd;clip-rule:evenodd;fill:#DD4B40;}
	.st15{display:inline;fill-rule:evenodd;clip-rule:evenodd;fill:#933C2C;}
	.st16{display:inline;opacity:0.55;fill-rule:evenodd;clip-rule:evenodd;fill:#933C2C;}
	.st17{display:inline;opacity:2.000000e-02;}
	.st18{fill:#A6DD90;}
	.st19{fill:#9FD685;}
	.st20{fill:#6BBF4C;}
	.st21{fill:#59A838;}
	.st22{opacity:0.2;}
	.st23{display:inline;opacity:0.32;}
	.st24{opacity:0.3;}
	.st25{fill:#EDEDED;}
	.st26{fill:#818181;}
	.st27{fill:#FFC97B;}
	.st28{display:inline;opacity:0.3;}
	.st29{fill:#595959;}
	.st30{display:inline;opacity:0.55;}
	.st31{fill:#3A2626;}
	.st32{display:inline;opacity:0.33;}
	.st33{fill:#6D2A19;}
	.st34{display:inline;fill:#CBB21F;}
	.st35{display:inline;fill:#616264;}
	.st36{display:inline;fill:#317C90;}
	.st37{display:inline;fill:#C6486F;}
	.st38{opacity:0.55;}
	.st39{opacity:0.2;clip-path:url(#SVGID_2_);fill:#616264;}
	.st40{display:inline;opacity:0.12;fill:#FFFFFF;}
	.st41{fill:#E07D00;}
	.st42{fill:#EF9400;}
	.st43{fill:#036D05;}
	.st44{fill:#FFC04E;}
	.st45{fill:#5AC6E1;}
	.st46{fill:#F4A100;}
	.st47{fill:#FFA600;}
	.st48{fill:#FBC04D;}
	.st49{fill:#FFBF37;}
	.st50{fill:#C49300;}
	.st51{fill:#401E0B;}
	.st52{fill:#E8CEB4;}
	.st53{fill:#7F2A00;}
	.st54{display:inline;opacity:0.1;fill:#FFFFFF;}
	.st55{display:inline;fill:#FFCC00;}
	.st56{display:inline;fill:#FFD944;}
	.st57{display:inline;fill:#FF6243;}
	.st58{display:inline;fill:#FF3501;}
	.st59{display:none;fill:#37BDD3;}
	.st60{display:inline;fill:#0D5DBB;}
	.st61{fill:#0D5DBB;}
	.st62{display:inline;opacity:0.66;fill:#0D57CD;}
	.st63{display:inline;opacity:0.66;fill:#2A6FD2;}
	.st64{display:inline;opacity:5.000000e-02;fill:#01050A;}
	.st65{fill:#A1F3E9;}
	.st66{fill:#67B9B1;}
	.st67{fill:#577283;}
	.st68{fill:#61727C;}
	.st69{display:inline;opacity:0.11;fill:#FFFFFF;}
	.st70{fill:none;stroke:#E1CC74;stroke-width:2;stroke-miterlimit:10;}
	.st71{fill:#933C2C;}
	.st72{fill:#A2CFD2;}
	.st73{fill:#BEB177;}
	.st74{fill:#9F9465;}
	.st75{fill:#BB7D00;}
	.st76{fill:#324A9D;}
	.st77{display:inline;fill:#8AC651;}
	.st78{display:inline;fill:#00A551;}
	.st79{display:inline;fill:#FFFFFF;}
	.st80{display:inline;opacity:0.21;fill:#FFFFFF;}
	.st81{display:inline;fill:none;stroke:#B6803D;stroke-width:3;stroke-miterlimit:10;}
	.st82{display:inline;fill:#EDB25D;}
	.st83{display:inline;fill:#F3B343;}
	.st84{display:inline;fill:#754F1F;}
	.st85{display:inline;fill:#CD4D4D;}
	.st86{display:inline;fill:#B14444;}
	.st87{display:inline;fill:#54ABFB;}
	.st88{display:inline;fill:none;stroke:#026E92;stroke-width:4;stroke-miterlimit:10;}
	.st89{display:inline;fill:#5E92CB;}
	.st90{display:inline;opacity:4.000000e-02;fill:#070201;}
	.st91{fill:#F45151;}
	.st92{display:inline;opacity:0.43;}
	.st93{fill:#C42727;}
</style>
<g id="nightlife" class="st0">
	<polygon class="st1" points="63.5,52.8 58.5,56.8 53.5,52.8 57.5,57.8 53.5,62.8 58.5,58.8 63.5,62.8 59.5,57.8 	"/>
	<path class="st2" d="M63.5,52.8"/>
	<path class="st3" d="M54.3,35l-2.5-1.2l-3.6,2.5c0.3,0.2,0.6,0.3,0.9,0.5l-1.5,0l-0.9,0.6c-0.4,0.3-0.9,0.4-1.3,0.4
		c-0.5,0-1-0.2-1.5-0.5c-0.2-0.2-0.3-0.3-0.5-0.5l-4.1,0c0-1-0.1-2.1-0.2-3.1c1.2,0.2,2.9,0.5,4.1,0.8l2.6-5.6l-3.6-5.1
		c-0.6-0.8-0.6-2,0.1-2.8c0.4-0.5,1.1-0.8,1.7-0.8c0.3,0,0.7,0.1,1,0.2l2.1,1c-3.8-3.7-8.9-6.2-14.5-6.7l0-11.2c0-1.3-1-2.3-2.3-2.3
		c-1.3,0-2.3,1-2.3,2.3l0,11.2c-3.9,0.4-7.5,1.7-10.7,3.7l6.1,7.2c0.8,0.9,0.7,2.2-0.1,3c-0.3,0.3-0.7,0.5-1.1,0.6
		c-0.1,0.3-0.1,0.6-0.2,1c-1.2,0.2-2.3,0.3-3.4,0.6c0.2-0.9,0.5-1.7,0.8-2.5l-3.3-2.6c-0.3,0.1-0.6,0.3-0.8,0.4
		c0.2-0.2,0.4-0.4,0.6-0.6l-3.6-2.8C8.9,27,6.6,32.5,6.6,38.5c0,7.8,3.8,14.7,9.6,19.1l0.5-3.8l-4.1-2.6c-0.9-0.6-1.3-1.7-0.9-2.7
		c0.3-0.9,1.2-1.5,2.1-1.5c0.1,0,0.2,0,0.3,0l4.7,0.7l0.3-0.5c-0.1-0.3-0.2-0.6-0.3-1c0.3,0.1,0.6,0.1,0.8,0.1l1.7-2.7
		c0.1-0.1,0.2-0.3,0.3-0.4c-1.3-0.2-2.5-0.4-3.6-0.7c-0.1-0.8-0.2-1.6-0.2-2.3l3.8,0c0,1,0.1,1.9,0.1,2.9c0.4-0.4,0.9-0.6,1.5-0.6
		c0.3,0,0.5,0,0.8,0.1c1,0.4,1.6,1.4,1.5,2.5l-0.7,4.7l1.5,0.9c-0.3-1.1-0.5-2.4-0.7-3.7c1,0.1,2,0.1,3.1,0.1l0,3.8
		c-0.8,0-1.5-0.1-2.3-0.2l2.5,1.6c0.9,0.6,1.3,1.7,0.9,2.7c-0.2,0.6-0.6,1-1.1,1.2l0,0.6c-0.1-0.1-0.2-0.3-0.3-0.5
		c-0.2,0.1-0.5,0.1-0.8,0.1c-0.1,0-0.2,0-0.3,0L22.8,56l-2.6,4.1c0,0,0,0,0,0c3.1,1.5,6.7,2.4,10.4,2.4c13.2,0,24-10.8,24-24
		C54.6,37.3,54.5,36.1,54.3,35L54.3,35z M15.6,30.2c-0.1,0.5-0.3,1-0.4,1.6c-0.8,0.2-1.5,0.5-2.2,0.8C13.7,31.7,14.6,30.9,15.6,30.2
		L15.6,30.2z M14.7,35.5c0,0.4-0.1,0.8-0.1,1.3l-2.5,0C12.7,36.4,13.6,36,14.7,35.5L14.7,35.5z M12.1,40.2l2.5,0
		c0,0.4,0.1,0.8,0.1,1.3C13.6,41.1,12.7,40.7,12.1,40.2L12.1,40.2z M13,44.5c0.7,0.3,1.4,0.5,2.2,0.8c0.1,0.5,0.2,1,0.4,1.6
		C14.6,46.1,13.7,45.4,13,44.5L13,44.5z M21.8,36.8l-3.8,0c0-0.8,0.1-1.6,0.2-2.3c1.1-0.3,2.4-0.5,3.8-0.7
		C21.9,34.7,21.8,35.8,21.8,36.8L21.8,36.8z M23.8,23.1c-0.5,0.1-1,0.2-1.6,0.4c0.7-1,1.5-1.9,2.3-2.6C24.3,21.6,24,22.4,23.8,23.1
		L23.8,23.1z M28.9,43.8c-1.2,0-2.4-0.1-3.4-0.2c-0.1-1.1-0.1-2.2-0.2-3.4l3.6,0L28.9,43.8z M28.9,36.8l-3.6,0
		c0-1.2,0.1-2.4,0.2-3.4c1.1-0.1,2.2-0.2,3.5-0.2L28.9,36.8z M28.9,29.7c-1,0-2.1,0.1-3.1,0.2c0.2-1.4,0.4-2.6,0.7-3.8
		c0.8-0.1,1.6-0.2,2.3-0.2L28.9,29.7z M28.9,22.5c-0.4,0-0.8,0.1-1.3,0.1c0.4-1,0.8-1.8,1.2-2.4c0,0.1,0.1,0.1,0.1,0.2L28.9,22.5z
		 M39.4,40.2l3.8,0c0,0.8-0.1,1.6-0.2,2.3c-1.1,0.3-2.4,0.5-3.8,0.7C39.3,42.3,39.3,41.2,39.4,40.2L39.4,40.2z M42.3,30.8
		c-1.1-0.2-2.2-0.4-3.4-0.6c-0.2-1.2-0.3-2.3-0.6-3.4c1,0.3,2,0.6,3,1C41.6,28.8,42,29.8,42.3,30.8L42.3,30.8z M38.9,23.5
		c-0.5-0.1-1-0.3-1.6-0.4c-0.2-0.8-0.5-1.5-0.8-2.2C37.4,21.6,38.2,22.5,38.9,23.5L38.9,23.5z M32.3,20.3c0,0,0.1-0.1,0.1-0.2
		c0.4,0.6,0.8,1.4,1.2,2.4c-0.4,0-0.8-0.1-1.3-0.1L32.3,20.3z M32.3,25.9c0.8,0,1.6,0.1,2.3,0.2c0.3,1.1,0.5,2.4,0.7,3.8
		c-1-0.1-2-0.1-3.1-0.1L32.3,25.9z M32.3,57l0-2.5c0.4,0,0.8,0,1.3-0.1C33.2,55.5,32.7,56.4,32.3,57L32.3,57z M34.7,50.9
		c-0.8,0.1-1.5,0.2-2.3,0.2l0-3.8c1,0,2.1-0.1,3.1-0.2C35.2,48.5,34.9,49.7,34.7,50.9L34.7,50.9z M35.8,43.7
		c-1.1,0.1-2.2,0.1-3.5,0.2l0-3.6l3.6,0C35.9,41.4,35.8,42.6,35.8,43.7L35.8,43.7z M32.3,36.8l0-3.6c1.2,0,2.4,0.1,3.5,0.2
		c0.1,1.1,0.1,2.2,0.2,3.4L32.3,36.8z M36.6,56.1c0.3-0.7,0.5-1.4,0.8-2.2c0.5-0.1,1-0.2,1.6-0.4C38.2,54.5,37.4,55.4,36.6,56.1
		L36.6,56.1z M41.3,49.2c-0.9,0.4-1.9,0.7-3,1c0.2-1.1,0.4-2.2,0.6-3.4c1.2-0.2,2.3-0.3,3.4-0.6C42,47.2,41.7,48.2,41.3,49.2
		L41.3,49.2z M42.9,53.5c0.3-0.6,0.6-1.1,0.9-1.7c0.6-0.3,1.2-0.6,1.7-0.9C44.8,51.8,43.9,52.7,42.9,53.5L42.9,53.5z M45.6,46.8
		c0.1-0.5,0.3-1,0.4-1.6c0.8-0.2,1.5-0.5,2.2-0.8C47.5,45.3,46.6,46.1,45.6,46.8L45.6,46.8z M46.5,41.5c0-0.4,0.1-0.8,0.1-1.3l2.5,0
		C48.5,40.6,47.6,41.1,46.5,41.5L46.5,41.5z M46.5,41.5"/>
	<polygon class="st1" points="48.6,28.7 45.3,35.6 51.6,31.2 58.5,34.4 54.1,28.2 57.3,21.3 51.1,25.7 44.2,22.4 	"/>
	<path class="st2" d="M48.6,28.7"/>
	<polygon class="st1" points="11.3,18.9 21.9,27.1 13.3,16.8 21.5,6.1 11.2,14.8 0.5,6.6 9.2,16.9 1,27.5 	"/>
	<path class="st2" d="M11.3,18.9"/>
	<polygon class="st1" points="21.7,53.5 27.9,54.4 22.6,51.1 23.4,44.9 20.1,50.1 13.9,49.3 19.2,52.6 18.3,58.8 	"/>
	<path class="st4" d="M21.7,53.5"/>
</g>
<g id="wifi" class="st0">
	<path class="st4" d="M32,32.4c-6,0.1-11.3,3.2-14.4,7.8l4.6,4.6c1.6-3.3,6-6.7,9.9-6.8c3.9,0.1,8.1,3.3,9.7,6.6l4.7-4.4
		C43.3,35.6,38,32.5,32,32.4z"/>
	<path class="st4" d="M32,20.8C22.8,20.9,14.6,25.3,9.3,32l3.8,3.8c4.1-5.5,11.5-10.1,18.9-10.2c7.3,0.1,14.5,4.7,18.6,10.2l4.1-3.9
		C49.4,25.3,41.2,20.9,32,20.8z"/>
	<path class="st4" d="M32,8.5C19.4,8.5,8.1,14.2,0.5,23.2l4.6,4.6c6.2-7.5,16.5-13.4,26.9-13.4c10.5,0.1,20.8,5.9,26.9,13.4l4.6-4.6
		C55.9,14.2,44.6,8.5,32,8.5z"/>
	<ellipse transform="matrix(0.9834 -0.1814 0.1814 0.9834 -8.5008 6.6312)" class="st4" cx="32" cy="49.8" rx="5.7" ry="5.7"/>
	<g class="st5">
		<g>
			<path class="st6" d="M31.9,32.6c-6,0.1-11.2,3.2-14.3,7.8l5.5,5.5c1.6-3.3,4.9-5.6,8.8-5.7V32.6z"/>
			<path class="st6" d="M31.9,21.1c-9.1,0.1-17.3,4.4-22.6,11.1l4.8,4.8c4-5.5,10.5-9,17.8-9.1V21.1z"/>
			<path class="st6" d="M31.9,8.7C19.3,8.8,8.1,14.5,0.6,23.4l5.5,5.5c6.1-7.5,15.4-12.3,25.8-12.4V8.7z"/>
		</g>
		<path class="st6" d="M31.9,44.2c-0.3,0-0.6,0-1,0.1c-3.1,0.6-5.1,3.5-4.5,6.6c0.5,2.7,2.8,4.6,5.5,4.6V44.2z"/>
	</g>
</g>
<g id="alcohol-served" class="st0">
	<line class="st7" x1="27.5" y1="43.4" x2="27.5" y2="43.4"/>
	<path class="st8" d="M18.1,15.7l0.3-4.3h6.8l0.3,4.3c0.1,2.4,5.4,3,5.4,9.8v34.9c0,1.7-1.7,3.1-3.8,3.1c-5.4,0-5.1,0-10.5,0
		c-2.1,0-3.8-1.4-3.8-3.1V25.5C12.7,18.6,18,18.1,18.1,15.7z"/>
	<path class="st9" d="M21.8,11.4h3.4l0.3,4.3c0.1,2.4,5.4,3,5.4,9.8v34.9c0,1.7-1.7,3.1-3.8,3.1h-5.2V11.4z"/>
	<rect x="13.6" y="26.3" class="st10" width="16.4" height="20.6"/>
	<path class="st10" d="M18.4,11.4L19,1.9c3.6,0,2.1,0,5.6,0l0.6,9.5H18.4z"/>
	<path class="st10" d="M18.4,0.5h6.9c0.3,0,0.6,0.3,0.6,0.6v1.6c0,0.3-0.3,0.6-0.6,0.6h-6.9c-0.3,0-0.6-0.3-0.6-0.6V1.1
		C17.8,0.8,18,0.5,18.4,0.5z"/>
	<path class="st11" d="M48.7,25.6H37.3c-0.6,2-3.7,8.7-2.1,14.5c0.8,2.8,2.4,4.9,4.4,5.9c1.3,0.8,2.5,1.8,2.5,3.9v9.9
		c0,1.5-0.5,2-1,2.4h-4.2c-0.4,0-0.7,0.3-0.7,0.7l0,0c0,0.4,0.3,0.7,0.7,0.7h12.2c0.4,0,0.7-0.3,0.7-0.7l0,0c0-0.4-0.3-0.7-0.7-0.7
		h-4.2c-0.5-0.4-1-1-1-2.4v-9.9c0-2,1.2-3,2.5-3.9c2-1.1,3.7-3.1,4.4-5.9C52.4,34.3,49.3,27.6,48.7,25.6z"/>
	<path class="st12" d="M48.7,25.6H43v37.9h6.1c0.4,0,0.7-0.3,0.7-0.7l0,0c0-0.4-0.3-0.7-0.7-0.7h-4.2c-0.5-0.4-1-1-1-2.4v-9.9
		c0-2,1.2-3,2.5-3.9c2-1.1,3.7-3.1,4.4-5.9C52.4,34.3,49.3,27.6,48.7,25.6z"/>
	<g class="st2">
		<path class="st13" d="M51.3,36.5L51.3,36.5l0-0.1l0,0v0V36.5l0-0.1L51.3,36.5L51.3,36.5z M35.2,32.6c-0.5,2.4-0.6,5,0,7.5
			c1.2,4.3,4.4,6.8,7.8,6.8c1.7,0,3.4-0.6,4.8-1.8l0,0c0.2-0.2,0.4-0.3,0.5-0.5l0,0l0.1-0.1l0,0l0.1-0.1l0,0l0.1-0.1l0,0
			c0.1-0.1,0.2-0.3,0.3-0.4l0,0l0.1-0.1l0-0.1l0.1-0.1l0.1-0.1l0-0.1l0-0.1l0-0.1l0,0c0,0,0.1-0.1,0.1-0.1l0.1-0.1l0,0l0-0.1l0-0.1
			l0.1-0.1l0-0.1l0.1-0.1l0-0.1l0-0.1l0.1-0.1l0,0l0.1-0.1l0-0.1l0-0.1l0-0.1l0-0.1l0-0.1l0-0.1l0-0.1l0-0.1l0-0.1l0.1-0.1l0,0l0,0
			c0-0.1,0-0.1,0.1-0.2l0,0l0-0.1l0-0.1l0-0.1l0-0.1l0-0.1l0-0.1l0-0.1l0-0.1l0-0.1c0-0.1,0-0.1,0.1-0.2l0-0.1l0,0l0,0l0-0.1l0,0
			l0-0.1l0,0l0,0l0-0.1l0,0l0,0l0-0.1l0,0l0,0l0-0.1l0,0l0-0.1l0,0l0,0l0-0.1l0,0l0-0.1v0l0-0.1l0,0l0,0l0,0l0-0.1l0,0l0-0.1l0,0
			l0-0.1l0,0l0-0.1l0,0l0,0c0-0.1,0-0.1,0-0.2l0,0l0,0l0-0.1l0,0l0,0l0-0.1l0,0v0l0,0l0-0.1l0,0l0-0.1l0,0c0-0.1,0-0.1,0-0.2l0,0
			c0-0.2,0-0.3,0-0.5v0l0-0.1l0-0.1l0,0l0-0.1v0l0-0.1v0l0-0.1v0v0l0,0l0-0.1v-0.1l0,0l0-0.1v0l0-0.1l0,0l0-0.1l0-0.1v0l0-0.1v0l0,0
			l0-0.1l0,0l0-0.1l0,0l0-0.1l0,0l0-0.1l0,0l0,0l0-0.1l0,0l0-0.1l0,0l0,0l0-0.1l0,0l0-0.1l0,0l0-0.1v0l0-0.1l0-0.1l0,0l0-0.1l0,0
			l0,0l0-0.1l0,0l0-0.1l0,0l0-0.1l0,0l0-0.1l0,0l0-0.2l0,0l0,0l0-0.1l0,0l0-0.1v0l0-0.1l0,0c0-0.1,0-0.2,0-0.3l0,0l0,0l0-0.1l0,0
			l0-0.1l0,0l0-0.1l0,0l0,0c0-0.1,0-0.2-0.1-0.3l0,0H40.1H35.2z"/>
	</g>
	<g class="st2">
		<path class="st14" d="M51.3,36.5L51.3,36.5l0-0.1l0,0v0V36.5l0-0.1L51.3,36.5L51.3,36.5z M43,46.8c1.7,0,3.4-0.6,4.8-1.8l0,0
			c0.2-0.2,0.4-0.3,0.5-0.5l0,0l0.1-0.1l0,0l0.1-0.1l0,0l0.1-0.1l0,0c0.1-0.1,0.2-0.3,0.3-0.4l0,0l0.1-0.1l0-0.1l0.1-0.1l0.1-0.1
			l0-0.1l0-0.1l0-0.1l0,0c0,0,0.1-0.1,0.1-0.1l0.1-0.1l0,0l0-0.1l0-0.1l0.1-0.1l0-0.1l0.1-0.1l0-0.1l0-0.1l0.1-0.1l0,0l0.1-0.1
			l0-0.1l0-0.1l0-0.1l0-0.1l0-0.1l0-0.1l0-0.1l0-0.1l0-0.1l0.1-0.1l0,0l0,0c0-0.1,0-0.1,0.1-0.2l0,0l0-0.1l0-0.1l0-0.1l0-0.1l0-0.1
			l0-0.1l0-0.1l0-0.1l0-0.1c0-0.1,0-0.1,0.1-0.2l0-0.1l0,0l0,0l0-0.1l0,0l0-0.1l0,0l0,0l0-0.1l0,0l0,0l0-0.1l0,0l0,0l0-0.1l0,0
			l0-0.1l0,0l0,0l0-0.1l0,0l0-0.1v0l0-0.1l0,0l0,0l0,0l0-0.1l0,0l0-0.1l0,0l0-0.1l0,0l0-0.1l0,0l0,0c0-0.1,0-0.1,0-0.2l0,0l0,0
			l0-0.1l0,0l0,0l0-0.1l0,0v0l0,0l0-0.1l0,0l0-0.1l0,0c0-0.1,0-0.1,0-0.2l0,0c0-0.2,0-0.3,0-0.5v0l0-0.1l0-0.1l0,0l0-0.1v0l0-0.1v0
			l0-0.1v0v0l0,0l0-0.1v-0.1l0,0l0-0.1v0l0-0.1l0,0l0-0.1l0-0.1v0l0-0.1v0l0,0l0-0.1l0,0l0-0.1l0,0l0-0.1l0,0l0-0.1l0,0l0,0l0-0.1
			l0,0l0-0.1l0,0l0,0l0-0.1l0,0l0-0.1l0,0l0-0.1v0l0-0.1l0-0.1l0,0l0-0.1l0,0l0,0l0-0.1l0,0l0-0.1l0,0l0-0.1l0,0l0-0.1l0,0l0-0.2
			l0,0l0,0l0-0.1l0,0l0-0.1v0l0-0.1l0,0c0-0.1,0-0.2,0-0.3l0,0l0,0l0-0.1l0,0l0-0.1l0,0l0-0.1l0,0l0,0c0-0.1,0-0.2-0.1-0.3l0,0H43
			V46.8z"/>
	</g>
	<rect x="21.8" y="26.3" class="st15" width="8.2" height="20.6"/>
	<polygon class="st16" points="21.8,1.9 24.6,1.9 25.2,11.4 21.8,11.4 	"/>
	<path class="st16" d="M21.8,0.5h3.4c0.4,0,0.6,0.3,0.6,0.6v1.6c0,0.3-0.3,0.6-0.6,0.6h-3.4V0.5z"/>
</g>
<g id="veg-only" class="st0">
	<path class="st17" d="M10.2,24.7c0.3,0,0.7,0,1-0.1C11.1,25.1,11,25.6,11,26c0,3.8,3.1,6.8,6.8,6.8c1.1,0,2.1-0.3,3-0.7
		c3.5,9.3,3.1,19.9,2.6,25.2c-0.2,2-0.4,3.2-0.4,3.4c0,0,0,0,0,0c11.2,5.4,22.4,0.9,22.4,0.9c-0.1-0.4-0.2-0.7-0.3-1.1
		c0-0.1-0.1-0.2-0.1-0.3c-0.1-0.3-0.2-0.6-0.2-0.9c0-0.1,0-0.2-0.1-0.2c-0.1-0.4-0.2-0.7-0.3-1.1c0-0.1,0-0.2-0.1-0.3
		c-0.1-0.3-0.1-0.6-0.2-0.9c0-0.1,0-0.2-0.1-0.3c-0.1-0.4-0.1-0.7-0.2-1.1c0-0.1,0-0.1,0-0.2c-0.1-0.3-0.1-0.6-0.1-1
		c0-0.1,0-0.2,0-0.3c0-0.3-0.1-0.6-0.1-0.9c0-0.1,0-0.2,0-0.2c0-0.4-0.1-0.7-0.1-1.1c0-0.1,0-0.2,0-0.3c0-0.3,0-0.5-0.1-0.8
		c0-0.1,0-0.2,0-0.3c0-0.4,0-0.7-0.1-1.1c0-0.1,0-0.2,0-0.3c0-0.3,0-0.6,0-0.8c0-0.1,0-0.3,0-0.4c0-0.3,0-0.6,0-0.9
		c0-0.1,0-0.1,0-0.2c0-0.4,0-0.7,0-1.1c0-0.1,0-0.2,0-0.4c0-0.3,0-0.5,0-0.8c0-0.1,0-0.2,0-0.3c0-0.3,0-0.7,0-1c0-0.1,0-0.2,0-0.3
		c0-0.3,0-0.5,0.1-0.8c0-0.1,0-0.2,0-0.3c0-0.3,0.1-0.7,0.1-1c0,0,0-0.1,0-0.1c0-0.3,0.1-0.7,0.1-1c0-0.1,0-0.2,0-0.3
		c0-0.3,0.1-0.6,0.1-0.8c0-0.1,0-0.1,0-0.2c0-0.3,0.1-0.7,0.1-1c0-0.1,0-0.1,0-0.2c0-0.3,0.1-0.6,0.1-0.9c0-0.1,0-0.1,0-0.2
		c0.1-0.7,0.2-1.4,0.3-2c0,0,0-0.1,0-0.1c0.2-1.4,0.5-2.6,0.8-3.9c0,0,0.1,0,0.1,0.1c0.1,0.1,0.2,0.1,0.3,0.2c0.1,0,0.2,0.1,0.3,0.1
		c0.1,0.1,0.2,0.1,0.3,0.2c0.1,0,0.1,0.1,0.2,0.1c0.2,0.1,0.3,0.1,0.5,0.2c0.1,0,0.1,0,0.2,0.1c0.2,0.1,0.3,0.1,0.5,0.1
		c0,0,0.1,0,0.1,0c0.2,0,0.4,0.1,0.6,0.1c0.1,0,0.1,0,0.2,0c0.2,0,0.4,0,0.7,0c4,0,7.2-3.2,7.2-7.2c0-0.2,0-0.3,0-0.5
		c3.2-0.8,5.6-3.7,5.6-7.2c0-4.1-3.3-7.4-7.4-7.4c-0.1,0-0.1,0-0.2,0c0.1-0.5,0.2-1,0.2-1.6c0-3.3-2.7-5.9-5.9-5.9
		c-1.3,0-2.5,0.4-3.4,1.1c-1.2-1.2-2.9-2-4.8-2c-3,0-5.6,2-6.5,4.7c-0.2,0-0.4,0-0.5,0c-2,0-3.7,0.8-5,2.2c-1.1-1.1-2.6-1.9-4.3-1.9
		c-0.5,0-1,0.1-1.4,0.2c-1.2-1.7-3.1-2.8-5.3-2.9c-3.7-0.1-6.8,2.8-6.9,6.5c0,0.7,0.1,1.3,0.2,1.9c0,0,0,0,0,0
		c-3.7-0.1-6.8,2.8-6.9,6.5C3.5,21.5,6.5,24.6,10.2,24.7z M28.2,34.3c3.8,0,6.8-3.1,6.8-6.8c0-0.5-0.1-1.1-0.2-1.6
		c1.7-0.4,3.1-1.6,3.7-3.2c0.7,0.5,1.5,0.8,2.4,1c-0.9,6.2-2.9,16.9-6.7,17.6c-2.4,0.5-4.9-3-6.9-7.1C27.6,34.3,27.9,34.3,28.2,34.3
		z"/>
	<g class="st2">
		<g>
			<g>
				<path class="st18" d="M21.4,23.3c0,0,5.8,19.1,11.2,18.1c5.5-1.1,7.3-22.1,7.3-22.1l6.4,1.4c0,0-8.5,22.7-2.4,41.2
					c0,0-11.2,4.5-22.4-0.9c0,0,3.6-21-5.1-34.7L21.4,23.3z"/>
				<path class="st19" d="M43.8,61.7c-4.3-13-1.3-28.2,0.8-36c-0.2,0.2-0.3,0.4-0.5,0.6c-6.2,7.6-5.8,30.6-10.3,32.4
					c-3.7,1.5-9.7-0.5-12-1.3c-0.2,2.2-0.4,3.4-0.4,3.4C32.6,66.3,43.8,61.7,43.8,61.7z"/>
			</g>
			<g>
				<g>
					<path class="st20" d="M60.4,16.3c0-4.1-3.3-7.4-7.4-7.4c-0.1,0-0.1,0-0.2,0c0.1-0.5,0.2-1,0.2-1.6c0-3.3-2.7-5.9-5.9-5.9
						c-1.3,0-2.5,0.4-3.4,1.1c-1.2-1.2-2.9-2-4.8-2c-3,0-5.6,2-6.5,4.7c-0.2,0-0.4,0-0.5,0c-2,0-3.7,0.8-5,2.2
						c-1.1-1.1-2.6-1.9-4.3-1.9c-0.5,0-1,0.1-1.4,0.2c-1.2-1.7-3.1-2.8-5.3-2.9C12,2.7,8.9,5.6,8.8,9.3c0,0.7,0.1,1.3,0.2,1.9
						c0,0,0,0,0,0c-3.7-0.1-6.8,2.8-6.9,6.5c-0.1,3.7,2.8,6.8,6.5,6.9c0.3,0,0.7,0,1-0.1c-0.1,0.4-0.1,0.9-0.1,1.4
						c0,3.8,3.1,6.8,6.8,6.8c1.7,0,3.3-0.7,4.5-1.7c1.2,1.9,3.3,3.2,5.8,3.2c3.8,0,6.8-3.1,6.8-6.8c0-0.5-0.1-1.1-0.2-1.6
						c1.7-0.4,3.1-1.6,3.7-3.2c1,0.6,2.1,1.1,3.4,1.2c0,0,0,0,0,0c0,4,3.2,7.2,7.2,7.2s7.2-3.2,7.2-7.2c0-0.2,0-0.3,0-0.5
						C58,22.6,60.4,19.7,60.4,16.3z"/>
				</g>
				<path class="st21" d="M14.4,14.1c0,0,2.6,5.8-3.9,9.8C10.6,24,18.6,23,14.4,14.1z"/>
				<path class="st21" d="M19.7,26.3c0,0,1.6-6.2,9.2-5.2C28.9,21.1,22,16.8,19.7,26.3z"/>
				<path class="st21" d="M44.1,11.6c0,0-6.4,2.5-10.3-4.7C33.8,6.9,34.4,15.5,44.1,11.6z"/>
				<path class="st21" d="M41.3,21.9c0,0,2.3-6,9.7-4.1C51.1,17.8,44.8,12.8,41.3,21.9z"/>
			</g>
		</g>
		<g class="st22">
			<path class="st6" d="M53.1,22.1c-0.1,12.2-11.5,5.7-11.7,5.6c1.3,2.1,3.6,3.5,6.2,3.5c4,0,7.2-3.2,7.2-7.2c0-0.2,0-0.3,0-0.5
				c3.2-0.8,5.6-3.7,5.6-7.2c0-4.1-3.3-7.4-7.4-7.4c-0.1,0-0.1,0-0.2,0C62.5,17.4,53.1,22.1,53.1,22.1z"/>
			<path class="st6" d="M52.8,8.9c0.1-0.5,0.2-1,0.2-1.6c0-3.3-2.7-5.9-5.9-5.9c-1.3,0-2.5,0.4-3.4,1.1C52.8,2.9,52.8,8.9,52.8,8.9z
				"/>
		</g>
	</g>
</g>
<g id="smoking-area" class="st0">
	<g class="st23">
		<g>

				<image style="overflow:visible;" width="133" height="112" xlink:href="6E767A11CF3DE976.png"  transform="matrix(1 0 0 1 -41 -37)">
			</image>
		</g>
		<g>

				<image style="overflow:visible;" width="129" height="109" xlink:href="6E767A11CF3DE97A.png"  transform="matrix(1 0 0 1 -13 -37)">
			</image>
		</g>
		<g>

				<image style="overflow:visible;" width="97" height="103" xlink:href="6E767A11CF3DE97D.png"  transform="matrix(1 0 0 1 2 -33)">
			</image>
		</g>
		<g class="st24">

				<image style="overflow:visible;" width="138" height="110" xlink:href="6E767A11CF3DE97E.png"  transform="matrix(1 0 0 1 -44 -43)">
			</image>
		</g>
	</g>
	<g class="st2">
		<g>
			<path class="st25" d="M40.9,25.6L12.5,57.2c-0.6,0.7-0.6,1.8,0.1,2.4l3.7,3.3c0.7,0.6,1.8,0.6,2.4-0.1l28.3-31.6L40.9,25.6z"/>
		</g>
	</g>
	<g class="st2">
		<g>
			<path class="st26" d="M44.1,34.5c0,0,0.1-0.1,0.1-0.1l0,0l2.7-3l-6.3-5.6l-2.8,3.2l0.1,0.1c-0.3,0.7,0.7,2.3,2.2,3.7
				S43.3,34.8,44.1,34.5L44.1,34.5L44.1,34.5z"/>
		</g>
	</g>
	<g class="st2">
		<g>
			<g>

					<rect x="27.9" y="41.1" transform="matrix(0.6681 -0.7441 0.7441 0.6681 -24.1698 36.4333)" class="st27" width="1.7" height="8.3"/>
			</g>
		</g>
		<g>
			<g>
				<path class="st27" d="M12.5,57.2c-0.6,0.7-0.6,1.8,0.1,2.4l3.7,3.3c0.7,0.6,1.8,0.6,2.4-0.1l10.7-11.9l-6.2-5.6L12.5,57.2z"/>
			</g>
		</g>
	</g>
	<g class="st28">
		<g>
			<path class="st29" d="M43.1,29.8L15.5,60.6c-0.4,0.5-0.4,1.2,0.1,1.6l1.1,1c0.5,0.4,1.2,0.4,1.6-0.1L46,32.4L43.1,29.8z"/>
		</g>
	</g>
	<g class="st30">
		<g>

				<ellipse transform="matrix(0.6681 -0.7441 0.7441 0.6681 -6.8332 42.1475)" class="st31" cx="43.8" cy="28.7" rx="1.3" ry="3.6"/>
		</g>
	</g>
	<g class="st32">
		<g>
			<path class="st33" d="M42.5,30c-1.5-1.3-2.7-3.2-1.9-4.1c0.8-0.9,2.8,0.1,4.3,1.4c1.5,1.3,2.7,3.2,1.9,4.1
				C46,32.3,44,31.3,42.5,30z M41.4,26.5c-0.1,0.2,0.4,1.4,1.8,2.6c1.4,1.3,2.6,1.6,2.8,1.5c0.1-0.2-0.4-1.4-1.8-2.6
				C42.8,26.8,41.7,26.4,41.4,26.5z"/>
		</g>
	</g>
</g>
<g id="credit-cards" class="st0">
	<path class="st34" d="M63.5,47.5c0,3.3-2.7,6-6,6H7.1c-3.3,0-6-2.7-6-6V16.5c0-3.3,2.7-6,6-6h50.4c3.3,0,6,2.7,6,6V47.5z"/>
	<rect x="1" y="37.4" class="st35" width="62.5" height="9.1"/>
	<circle class="st36" cx="44.7" cy="20.4" r="5"/>
	<circle class="st37" cx="55.3" cy="20.4" r="5"/>
	<g class="st30">
		<defs>
			<path id="SVGID_1_" class="st38" d="M63,47.5c0,3.3-2.7,6-6,6H6.5c-3.3,0-6-2.7-6-6V16.5c0-3.3,2.7-6,6-6h50.4c3.3,0,6,2.7,6,6
				V47.5z"/>
		</defs>
		<clipPath id="SVGID_2_">
			<use xlink:href="#SVGID_1_"  style="overflow:visible;"/>
		</clipPath>

			<rect x="13.4" y="24.6" transform="matrix(0.7071 -0.7071 0.7071 0.7071 -16.9516 48.1691)" class="st39" width="72.6" height="40"/>
	</g>
</g>
<g id="shisha" class="st0">
	<rect x="34.5" y="0.5" class="st40" width="21.6" height="63"/>
	<g class="st2">
		<rect x="32.9" y="7.3" class="st41" width="3.4" height="27"/>
		<path class="st42" d="M38.8,1c0,1.6-1.9,3-4.2,3s-4.2-1.3-4.2-3"/>
		<path class="st42" d="M38.8,6.3c0,1.4-1.9,2.5-4.2,2.5s-4.2-1.1-4.2-2.5"/>
		<path class="st43" d="M34.6,36.1"/>
		<polyline class="st43" points="34.6,43.2 34.6,43.6 34.6,44 		"/>
		<path class="st44" d="M23.9,3.7h21.5c0.4,0,0.6,0.6,0.2,0.8C42.3,6,34,8.9,23.8,4.5C23.4,4.3,23.5,3.7,23.9,3.7z"/>
		<g>
			<g>
				<path class="st45" d="M44.1,46.6c-6.5-3.8-5.9-5.2-5.9-5.2l-3.6,0.1L31,41.4c0,0,0.6,1.4-5.9,5.2s-1.3,14.6,0.2,15.6l0.4,0.8
					h17.7l0.4-0.8C45.3,61.1,50.6,50.4,44.1,46.6z"/>
			</g>
		</g>
		<rect x="29.6" y="39.4" class="st46" width="9.9" height="2.1"/>
		<ellipse class="st47" cx="34.6" cy="19.3" rx="5.4" ry="2.5"/>
		<rect x="26.9" y="18.1" class="st48" width="15.4" height="2.5"/>
		<path class="st49" d="M33.7,36.4h1.7c1.6,0,3,1.3,3,3v0h-7.6v0C30.8,37.8,32.1,36.4,33.7,36.4z"/>
		<path class="st50" d="M34.6,33.5L34.6,33.5c1.2,0,2.1,0.9,2.1,2.1v0.8h-4.2v-0.8C32.5,34.4,33.4,33.5,34.6,33.5z"/>
		<path class="st41" d="M25.8,55.9c-5.9,0-11-2-14.2-5.6C8.1,46.5,7,42.9,8.3,39.9c4.1-10,31.4-11.9,32.6-12l0.1,1
			c-0.3,0-27.8,1.9-31.7,11.3c-1.1,2.7-0.1,5.9,3,9.4c3.4,3.8,9.1,5.7,15.6,5.2c9.7-0.8,21.5-4,26.1-9.5c1.1-1.3,1.5-2.5,1-3.4
			c-1.7-3.7-13.8-4.8-18.4-4.9l0-1c0.7,0,17,0.5,19.2,5.5c0.6,1.3,0.2,2.8-1.2,4.5C49.9,51.6,37.8,55,28,55.8
			C27.2,55.8,26.5,55.9,25.8,55.9z"/>
	</g>
</g>
<g id="microbrewery" class="st0">
	<g class="st2">
		<g>
			<path class="st51" d="M53.3,30.2h-1.3v2.2h1.3c-0.2-0.4-0.2-0.8-0.2-1.2C53.1,30.9,53.2,30.6,53.3,30.2z"/>
		</g>
		<g>
			<path class="st51" d="M62.2,31.8c0-0.9-0.7-1.6-1.6-1.6h-1.5c0.1,0.3,0.2,0.7,0.2,1c0,0.4-0.1,0.8-0.2,1.2H60v3.3h2.2V31.8z"/>
		</g>
		<g>
			<path class="st52" d="M63.2,35.8h-1H60h-1c-0.1,0-0.3,0.1-0.3,0.3v0.4c0-0.1,0.1-0.3,0.3-0.3h4.2c0.1,0,0.3,0.1,0.3,0.3v-0.4
				C63.5,35.9,63.4,35.8,63.2,35.8z"/>
		</g>
		<g>
			<path class="st51" d="M63.2,36.2H59c-0.1,0-0.3,0.1-0.3,0.3v1.6v0.4c0,0.1,0.1,0.3,0.3,0.3h4.2c0.1,0,0.3-0.1,0.3-0.3v-0.4v-1.6
				C63.5,36.3,63.4,36.2,63.2,36.2z"/>
		</g>
		<g>
			<path class="st52" d="M59.1,30.2c-0.4-1.2-1.5-2-2.7-2.1v0.4c1.4,0.1,2.6,1.3,2.6,2.7c0,1.5-1.2,2.7-2.7,2.7
				c-1.5,0-2.7-1.2-2.7-2.7c0-1.4,1.1-2.6,2.5-2.7v-0.4c-1.3,0.1-2.3,0.9-2.7,2.1c-0.1,0.3-0.2,0.7-0.2,1c0,0.4,0.1,0.8,0.2,1.2
				c0.5,1.1,1.6,1.9,2.8,1.9c1.3,0,2.4-0.8,2.8-1.9c0.2-0.4,0.2-0.8,0.2-1.2C59.3,30.9,59.2,30.6,59.1,30.2z"/>
		</g>
		<g>
			<path class="st51" d="M53.5,31.3c0,1.5,1.2,2.7,2.7,2.7c1.5,0,2.7-1.2,2.7-2.7c0-1.4-1.1-2.6-2.6-2.7v-0.4v0
				c0.3-0.1,0.4-0.3,0.4-0.7L57,24c0-0.4-0.3-0.7-0.7-0.7H56c-0.4,0-0.7,0.3-0.7,0.7l0.4,3.5c0,0.3,0.1,0.6,0.3,0.7v0v0.4
				C54.6,28.7,53.5,29.8,53.5,31.3z M56,27.7c-0.1,0-0.2-0.9-0.3-1.9c-0.1-1.1-0.1-1.9-0.1-1.9c0.1,0,0.2,0.9,0.3,1.9
				C56,26.8,56,27.7,56,27.7z"/>
		</g>
		<g>

				<ellipse transform="matrix(0.9963 -8.639400e-02 8.639400e-02 0.9963 -2.0166 4.9182)" class="st52" cx="55.8" cy="25.8" rx="0.1" ry="1.9"/>
		</g>
		<g>
			<path class="st52" d="M52.1,28.2h-0.3v7.1c0,0,0,0.1,0,0.1H52c0,0,0-0.1,0-0.1v-2.8v-2.2V28.2z"/>
		</g>
		<g>
			<path class="st51" d="M51.8,28.2h-3c0-1.4,0-2.7,0-4.6c-1.6-0.3-3.2-0.6-4.9-0.9c0.2,3,0.3,5.9,0.3,8.9c1.3,0,2.6,0,3.9,0v0.6
				c-1.3,0-2.6,0-3.9,0c0,3-0.1,6.1-0.3,9.1c1.1-0.2,2.2-0.4,3.4-0.6c0.5-0.1,1-0.2,1.5-0.3c0-2.1,0-3.5,0-5.1h3c0,0,0-0.1,0-0.1
				V28.2z"/>
		</g>
		<g>
			<path class="st51" d="M6.2,12.6c-1.9,0.6-3.8,1.4-5.7,2.2c0,3.3,0,4.9,0,8.2c1.6-0.4,3.1-0.7,4.7-1C5.4,18.9,5.8,15.7,6.2,12.6z"
				/>
		</g>
		<g>
			<path class="st51" d="M48.8,22.9c0-3.3,0-4.9,0-8.2c-2-0.9-4-1.6-6-2.3c0.5,3.2,0.8,6.3,1.1,9.5C45.5,22.2,47.1,22.6,48.8,22.9z"
				/>
		</g>
		<g>
			<path class="st53" d="M41.3,21.5c-0.3-3.3-0.7-6.5-1.2-9.8C29.7,8.8,19.3,8.9,8.9,11.8c-0.5,3.3-0.9,6.5-1.2,9.8
				C18.9,19.8,30.1,19.8,41.3,21.5z"/>
		</g>
		<g>
			<path class="st51" d="M4.8,31.6c0-3,0.1-5.9,0.3-8.9C3.6,23,2,23.2,0.5,23.6c0,3.2,0,4.9,0,8h0C1.9,31.6,3.3,31.6,4.8,31.6z"/>
		</g>
		<g>
			<path class="st53" d="M41.8,31.6c0-3.1-0.1-6.2-0.4-9.3c-11.2-1.6-22.5-1.6-33.8,0c-0.2,3.1-0.4,6.2-0.4,9.3
				C18.7,31.5,30.2,31.5,41.8,31.6z"/>
		</g>
		<g>
			<path class="st53" d="M7.2,32.3c0,3.1,0.1,6.3,0.4,9.4c11.2,1.7,22.5,1.7,33.7,0c0.2-3.2,0.4-6.3,0.4-9.5
				C30.2,32.3,18.7,32.3,7.2,32.3z"/>
		</g>
		<g>
			<path class="st51" d="M5.1,41.3c-0.2-3-0.3-6-0.3-9.1c-1.4,0-2.8,0-4.3,0c0,3.3,0,4.9,0,8.2c0.5,0.1,1,0.2,1.5,0.3
				C3,40.9,4.1,41.1,5.1,41.3z"/>
		</g>
		<g>
			<path class="st53" d="M7.7,42.4C8,45.7,8.4,49,8.9,52.2c10.4,2.9,20.8,2.9,31.2,0.1c0.5-3.3,0.9-6.6,1.2-9.8
				C30.1,44.2,18.9,44.2,7.7,42.4z"/>
		</g>
		<g>
			<path class="st51" d="M0.5,41.1c0,3.3,0,4.9,0,8.2c1.9,0.8,3.8,1.6,5.8,2.2c-0.5-3.1-0.8-6.3-1.1-9.4C3.6,41.7,2.1,41.4,0.5,41.1
				z"/>
		</g>
		<g>
			<path class="st51" d="M43.8,42.1c-0.3,3.1-0.6,6.3-1.1,9.5c2-0.6,4-1.4,6-2.3c0-3.3,0-4.9,0-8.2C47.1,41.4,45.5,41.8,43.8,42.1z"
				/>
		</g>
	</g>
	<path class="st54" d="M0.5,15.3c0,0,21.7-12.8,48.2,0L0.5,48.7V15.3z"/>
</g>
<g id="daylight" class="st0">
	<path class="st55" d="M29.7,63.5l5.1,0L34.7,54c4.2-0.5,8.1-2.2,11.2-4.7l6.7,6.6l3.6-3.6l-6.7-6.6c2.5-3.2,4.1-7,4.6-11.3l9.5-0.1
		l0-5.1L54,29.3c0.1,0.8,0.2,1.7,0.2,2.5l-8.9,0.1c0.1,7.3-5.8,13.3-13.1,13.3s-13.3-5.8-13.3-13.1l-8.9,0.1c0-0.9,0-1.7,0.1-2.5
		l-9.5,0.1l0,5.1l9.5-0.1c0.5,4.2,2.2,8.1,4.7,11.2l-6.6,6.7l3.6,3.6l6.6-6.7c3.2,2.5,7,4.1,11.3,4.6L29.7,63.5z M29.7,63.5"/>
	<path class="st56" d="M18.8,32.1c-0.1-7.3,5.8-13.3,13.1-13.3c7.3-0.1,13.3,5.8,13.3,13.1l8.9-0.1c0-0.9-0.1-1.7-0.2-2.5
		c-0.5-4.2-2.2-8.1-4.7-11.2l6.6-6.7l-3.6-3.6l-6.6,6.7c-3.2-2.5-7-4.1-11.3-4.6l-0.1-9.5l-5.1,0l0.1,9.5c-4.2,0.5-8.1,2.2-11.2,4.7
		l-6.7-6.6l-3.6,3.6l6.7,6.6c-2.5,3.2-4.1,7-4.6,11.3c-0.1,0.8-0.1,1.7-0.1,2.5L18.8,32.1z M18.8,32.1"/>
	<path class="st57" d="M31.9,18.8c-7.3,0.1-13.2,6-13.1,13.3l26.5-0.2C45.2,24.6,39.2,18.7,31.9,18.8L31.9,18.8z M31.9,18.8"/>
	<path class="st58" d="M32.1,45.2c7.3-0.1,13.2-6,13.1-13.3l-26.5,0.2C18.8,39.4,24.8,45.3,32.1,45.2L32.1,45.2z M32.1,45.2"/>
</g>
<path id="trends" class="st59" d="M59.1,21.4c-3.9-15-19.3-23.9-34.2-20c-15,4-24,19.3-20,34.3c1.8,7.1,6.3,12.8,12,16.5L9.5,63.5
	l29.6-7.8C54.1,51.8,63.1,36.5,59.1,21.4z M44.1,25.8l-9.4,9.7l-7.2-4.8L19.4,40l-4-3.5l11.2-12.8l7.4,5l5.5-5.7l-4.2-2.6l12.4-4.2
	l0.8,12.4L44.1,25.8z"/>
<g id="air-condition" class="st0">
	<path class="st60" d="M6.4,34.1h2.5c0,0,0.3-1.3,0.7-2.9c0.4-1.6,3.3-2.9,6.6-2.9h32.5c3.3,0,6.1,1.3,6.3,2.9l0.4,2.9h2.2
		c3.3,0,5.9-2.6,5.9-5.9v-11c0-2.7-1.9-5-4.4-5.7c0.1,0.6,0.2,1.1,0.2,1.7v2.4c0,3.9-3.2,7.1-7.1,7.1H11.7c-3.9,0-7.1-3.2-7.1-7.1
		v-2.4c0-0.6,0.1-1.2,0.2-1.7c-2.5,0.7-4.4,3-4.4,5.7v11C0.5,31.4,3.1,34.1,6.4,34.1L6.4,34.1z"/>
	<path class="st2" d="M6.4,34.1"/>
	<g class="st2">
		<g>
			<path class="st61" d="M56.6,11.2H7.4c-0.3,0.6-0.4,1.3-0.4,2v2.4c0,2.6,2.1,4.7,4.7,4.7h40.6c2.6,0,4.7-2.1,4.7-4.7v-2.4
				C57,12.5,56.8,11.8,56.6,11.2z M54,18.2H9.4c-0.3,0-0.6-0.3-0.6-0.6c0-0.3,0.3-0.6,0.6-0.6H54c0.3,0,0.6,0.3,0.6,0.6
				C54.6,17.9,54.3,18.2,54,18.2z M54,14.5H9.4c-0.3,0-0.6-0.3-0.6-0.6c0-0.3,0.3-0.6,0.6-0.6H54c0.3,0,0.6,0.3,0.6,0.6
				C54.6,14.2,54.3,14.5,54,14.5z"/>
		</g>
	</g>
	<path class="st2" d="M9.4,17"/>
	<path class="st62" d="M53.1,31.9c-0.2-1.2-3-2.2-6.2-2.2H17.5c-3.3,0-6.1,1-6.3,2.2c-0.2,1.2-0.4,2.2-0.4,2.2h42.6L53.1,31.9z"/>
	<path class="st2" d="M53.1,31.9"/>
	<path class="st63" d="M14.8,52.5c0.2,0.2,0.5,0.3,0.8,0.3c0.3,0,0.7-0.1,0.9-0.4c0.2-0.2,4.4-5.2,1.2-9.3c-1.8-2.3-0.5-3.6-0.2-3.8
		c0.5-0.4,0.6-1.1,0.2-1.7c-0.4-0.5-1.1-0.6-1.7-0.2c-1.2,1-2.9,3.7-0.2,7.1c2,2.5-1.1,6.2-1.2,6.3C14.3,51.3,14.3,52.1,14.8,52.5
		L14.8,52.5z M14.8,52.5"/>
	<path class="st63" d="M25.1,52.5c0.2,0.2,0.5,0.3,0.8,0.3c0.3,0,0.7-0.1,0.9-0.4c0.2-0.2,4.4-5.2,1.2-9.3c-1.8-2.3-0.5-3.6-0.2-3.8
		c0.5-0.4,0.6-1.1,0.2-1.7c-0.4-0.5-1.1-0.6-1.7-0.2c-1.2,1-2.9,3.7-0.2,7.1c2,2.5-1.1,6.2-1.2,6.3C24.6,51.3,24.6,52.1,25.1,52.5
		L25.1,52.5z M25.1,52.5"/>
	<path class="st63" d="M35.5,52.5c0.2,0.2,0.5,0.3,0.8,0.3c0.3,0,0.7-0.1,0.9-0.4c0.2-0.2,4.4-5.2,1.2-9.3c-1.8-2.3-0.5-3.6-0.2-3.8
		c0.5-0.4,0.6-1.1,0.2-1.7c-0.4-0.5-1.1-0.6-1.7-0.2c-1.2,1-2.9,3.7-0.2,7.1c2,2.5-1.1,6.2-1.2,6.3C34.9,51.3,35,52.1,35.5,52.5
		L35.5,52.5z M35.5,52.5"/>
	<path class="st63" d="M45.8,52.5c0.2,0.2,0.5,0.3,0.8,0.3c0.3,0,0.7-0.1,0.9-0.4c0.2-0.2,4.4-5.2,1.2-9.3c-1.8-2.3-0.5-3.6-0.2-3.8
		c0.5-0.4,0.6-1.1,0.2-1.7c-0.4-0.5-1.1-0.6-1.7-0.2c-1.2,1-2.9,3.7-0.2,7.1c2,2.5-1.1,6.2-1.2,6.3C45.3,51.3,45.3,52.1,45.8,52.5
		L45.8,52.5z M45.8,52.5"/>
	<path class="st64" d="M6,11.3h49.8c1.5,0,1.9,2.1,0.5,2.6L7.2,32.6c-2.9,1.1-6-1-6-4.2V16.1C1.2,13.4,3.3,11.3,6,11.3z"/>
</g>
<g id="home-delivery" class="st0">
	<g class="st2">
		<path class="st65" d="M17,30.1h-6.8c-1.1,0-1.9-0.9-1.9-1.9v0c0-1.1,0.9-1.9,1.9-1.9H17c1.1,0,1.9,0.9,1.9,1.9v0
			C18.9,29.2,18,30.1,17,30.1z"/>
		<path class="st65" d="M20.9,34.9H6.3c-1.1,0-1.9-0.9-1.9-1.9v0c0-1.1,0.9-1.9,1.9-1.9h14.5c1.1,0,1.9,0.9,1.9,1.9v0
			C22.8,34,21.9,34.9,20.9,34.9z"/>
		<path class="st65" d="M17.9,39.8H2.4c-1.1,0-1.9-0.9-1.9-1.9v0c0-1.1,0.9-1.9,1.9-1.9h15.5c1.1,0,1.9,0.9,1.9,1.9v0
			C19.9,38.9,19,39.8,17.9,39.8z"/>
		<rect x="17" y="19.4" class="st66" width="41.7" height="33"/>
		<rect x="15" y="9.7" class="st67" width="45.6" height="11.6"/>
		<rect x="12.1" y="47.5" class="st68" width="51.4" height="7.8"/>
	</g>
	<polygon class="st69" points="63,55.6 17.3,8.4 3.9,35.9 3.9,55.6 	"/>
</g>
<g id="takeaway" class="st0">
	<g class="st2">
		<path class="st70" d="M11.3,36.2l0-12.6c0-5.4,1.8-10.6,5.1-14.8C22.8,0.6,38-3.9,47.9,9.4c3.1,4.2,4.8,9.3,4.8,14.6l0,12.2"/>
		<g>
			<path class="st71" d="M34.2,37.7l-0.5-0.5c-0.2-0.2-0.4-0.2-0.6-0.2"/>
			<path class="st72" d="M33.1,41.1l0-10c0-1.2-0.5-2.3-1.4-3.1c0.8-0.5,1.4-1.3,1.4-2.3c0-1.5-1.2-2.7-2.7-2.7l-12.1,0
				c-1.5,0-2.7,1.2-2.7,2.7c0,1,0.6,1.8,1.4,2.3c-0.8,0.8-1.4,1.8-1.4,3.1l0,10"/>
			<path class="st72" d="M50.2,41.2l0-12.8c0-3.1-1.8-5.9-4.6-7.2l0-7.6c0.1-0.1,0.2-0.3,0.2-0.5l0-3.3c0-0.5-0.4-0.9-0.9-0.9
				l-5.4,0c-0.5,0-0.9,0.4-0.9,0.9l0,3.3c0,0.2,0.1,0.3,0.2,0.5l0,7.6c-2.8,1.3-4.6,4.1-4.6,7.2l0,12.8"/>
			<path class="st73" d="M14.9,38.4l-1.2-1.2c-0.3-0.3-0.6-0.3-0.9-0.2c-0.3,0.1-0.5,0.4-0.5,0.8l0,24.2c0,0.5,0.4,0.9,0.9,0.9
				l38.5,0.1c0.5,0,0.9-0.4,0.9-0.9l0.1-24.2c0-0.3-0.2-0.7-0.5-0.8l0,0c-0.3-0.1-0.7-0.1-0.9,0.2l-1.5,1.5"/>
		</g>
		<path class="st74" d="M52.7,43.4L52.7,43.4c-0.6,0-1.1-0.5-1.1-1.1l0-6.2c0-0.6,0.5-1.1,1.1-1.1h0c0.6,0,1.1,0.5,1.1,1.1l0,6.2
			C53.8,42.9,53.3,43.4,52.7,43.4z"/>
		<path class="st74" d="M11.3,43.4L11.3,43.4c-0.6,0-1.1-0.5-1.1-1.1l0-6.2c0-0.6,0.5-1.1,1.1-1.1h0c0.6,0,1.1,0.5,1.1,1.1l0,6.2
			C12.4,42.9,11.9,43.4,11.3,43.4z"/>
	</g>
	<polygon class="st69" points="52.3,63 16.1,22.7 40.8,1.1 53.8,15.6 	"/>
</g>
<g id="valet-parking" class="st0">
	<g class="st2">
		<path class="st75" d="M16.5,34c-3.5,0-6.3,2.8-6.3,6.3c0,3.5,2.8,6.3,6.3,6.3c3.5,0,6.3-2.8,6.3-6.3C22.8,36.8,19.9,34,16.5,34
			L16.5,34z M16.5,42.2c-1.1,0-1.9-0.9-1.9-1.9c0-1,0.9-1.9,1.9-1.9c1.1,0,1.9,0.9,1.9,1.9C18.4,41.4,17.5,42.2,16.5,42.2L16.5,42.2
			z M16.5,42.2"/>
		<g>
			<g>
				<path class="st76" d="M62.4,35.1l-1-8.4c-0.2-1.6-1.6-2.8-3.2-2.7l-2.3,0.1l-7-6.3c-0.7-0.6-1.6-0.9-2.5-0.9H32.1
					c-3.2,0-6.3,1.1-8.8,3.1l-8,6.4L4.6,29c-1.4,0.3-2.3,1.6-2.3,3v3.1c-0.5,0-0.8,0.4-0.8,0.8V40c0,0.6,0.5,1.1,1.1,1.1h6
					c0-0.3-0.1-0.5-0.1-0.8c0-4.4,3.6-7.9,8-7.9c4.4,0,7.9,3.6,7.9,7.9c0,0.3-0.1,0.5-0.1,0.8h16.8c0-0.3-0.1-0.5-0.1-0.8
					c0-4.4,3.6-7.9,7.9-7.9c4.4,0,7.9,3.6,7.9,7.9c0,0.3,0,0.5-0.1,0.8h5.6c0.6,0,1.1-0.5,1.1-1.1v-3.9C63.5,35.6,63,35.1,62.4,35.1
					z M41.3,24.8l-19.9,1l3.8-3.1c2.1-1.7,4.6-2.6,7.3-2.6h8.8V24.8z M44.6,24.6v-4.5h1.3c0.4,0,0.9,0.2,1.2,0.5l4.1,3.7L44.6,24.6z
					"/>
			</g>
		</g>
		<path class="st75" d="M49,34c-3.5,0-6.3,2.8-6.3,6.3c0,3.5,2.8,6.3,6.3,6.3c3.5,0,6.3-2.8,6.3-6.3C55.3,36.8,52.4,34,49,34L49,34z
			 M49,42.2c-1.1,0-1.9-0.9-1.9-1.9c0-1,0.9-1.9,1.9-1.9c1,0,1.9,0.9,1.9,1.9C50.8,41.4,50,42.2,49,42.2L49,42.2z M49,42.2"/>
	</g>
	<path class="st54" d="M38.4,16.9l-7.8,24.2l-5.9,0c0,0-6.8,13.6-16.5,0H0.5l1-11.6L15,26.6l11.6-9.7L38.4,16.9z"/>
</g>
<g id="map" class="st0">
	<path class="st77" d="M50.4,38.6c3.1-4.1,5.1-9.1,5.1-14.6C55.5,11,45,0.5,32,0.5C19,0.5,8.5,11,8.5,24c0,5.5,2,10.5,5.1,14.6
		C18.3,44.7,32,63.5,32,63.5S45.7,44.7,50.4,38.6z"/>
	<path class="st77" d="M50.4,38.6c3.1-4.1,5.1-9.1,5.1-14.6C55.5,11,45,0.5,32,0.5v63C32,63.5,45.7,44.7,50.4,38.6z"/>
	<path class="st78" d="M32,41.4c-9.6,0-17.4-7.8-17.4-17.4c0-9.6,7.8-17.4,17.4-17.4c9.6,0,17.4,7.8,17.4,17.4
		C49.4,33.6,41.6,41.4,32,41.4z"/>
	<path class="st79" d="M32,39.4c-8.5,0-15.4-6.9-15.4-15.4c0-8.5,6.9-15.4,15.4-15.4c8.5,0,15.4,6.9,15.4,15.4
		C47.4,32.5,40.5,39.4,32,39.4z"/>
	<path class="st77" d="M35.1,29.4c0.1,0.1,0.5,0,0.7-0.2L36,29c0.1-0.1,0.3-0.5,0.2-0.7l-3.3-3.1L32,26.2L35.1,29.4z"/>
	<path class="st77" d="M29.7,22.2c0.4-0.7,0.2-1.7-0.5-2.3c-0.8-0.8-2.5-1.6-3.3-0.8c-0.8,0.8,0,2.5,0.8,3.3
		c0.7,0.7,1.5,0.9,2.3,0.5l1.6,1.6l0.8-0.8L29.7,22.2z"/>
	<path class="st78" d="M33.7,22.2l-6.6,6.2c-0.1,0.1,0,0.5,0.2,0.7l0.2,0.2c0.1,0.1,0.3,0.2,0.5,0.2c0.1,0,0.1,0,0.1,0l6.2-6.6
		c0.2,0.1,0.4,0.1,0.5,0.2c0.6,0.1,1.1-0.2,1.6-0.7c1.6-1.6,1.9-1.9,1.4-2.5l-1.9,1.8c0,0-0.1,0.1-0.2,0.1c-0.1,0-0.1,0-0.1-0.1l0,0
		c0,0-0.1-0.1-0.1-0.1c0-0.1,0-0.1,0.1-0.2l1.7-2c0,0-0.1-0.1-0.1-0.1c-0.1-0.1-0.1-0.1-0.2-0.2l-2,1.7c0,0-0.1,0.1-0.2,0.1
		c-0.1,0-0.1,0-0.1-0.1l-0.1,0c0,0-0.1-0.1-0.1-0.1c0-0.1,0-0.1,0.1-0.2l1.8-1.8c-0.6-0.4-0.9-0.1-2.4,1.4c-0.5,0.5-0.7,1.1-0.6,1.7
		C33.6,21.8,33.6,22,33.7,22.2z"/>
	<polygon class="st80" points="31.9,63.5 8.6,32 8.6,4.2 31.9,0.5 	"/>
</g>
<g id="outdoor-seating" class="st0">
	<line class="st81" x1="33.1" y1="24.4" x2="33.1" y2="63.3"/>
	<path class="st82" d="M33.8,2.8V0.5h-3.2v2.3C17.9,3.6,7.1,12.5,3.9,24.4h56.7C57.3,12.5,46.8,3.6,34.1,2.8H33.8z M34.1,2.8"/>
	<rect x="49.5" y="50.8" class="st83" width="7.9" height="1.6"/>
	<path class="st84" d="M59.9,37.1V62c0,0.7-0.6,1.3-1.3,1.3c-0.7,0-1.3-0.6-1.3-1.3V55h-7.9V62c0,0.7-0.6,1.3-1.3,1.3
		c-0.7,0-1.3-0.6-1.3-1.3V49.5c0-0.7,0.6-1.3,1.3-1.3h9.1V37.1c0-0.7,0.6-1.3,1.3-1.3C59.3,35.8,59.9,36.4,59.9,37.1L59.9,37.1z
		 M57.3,52.4"/>
	<rect x="8.7" y="50.8" class="st83" width="7.9" height="1.6"/>
	<path class="st84" d="M19.1,49.5V62c0,0.7-0.6,1.3-1.3,1.3c-0.7,0-1.3-0.6-1.3-1.3V55H8.7V62c0,0.7-0.6,1.3-1.3,1.3
		c-0.7,0-1.3-0.6-1.3-1.3V37.1c0-0.7,0.6-1.3,1.3-1.3c0.7,0,1.3,0.6,1.3,1.3v11.2h9.1C18.5,48.3,19.1,48.9,19.1,49.5L19.1,49.5z
		 M16.6,52.4"/>
	<rect x="21.8" y="40.6" class="st84" width="22.4" height="3.7"/>
	<path class="st84" d="M46.8,39.4v6.2c0,0.7-0.6,1.3-1.3,1.3H34.3V61h2.9c0.7,0,1.3,0.6,1.3,1.3c0,0.7-0.6,1.3-1.3,1.3h-8.3
		c-0.7,0-1.3-0.6-1.3-1.3c0-0.7,0.6-1.3,1.3-1.3h2.9V46.9H20.5c-0.7,0-1.3-0.6-1.3-1.3v-6.2c0-0.7,0.6-1.3,1.3-1.3h24.9
		C46.2,38.1,46.8,38.7,46.8,39.4L46.8,39.4z M44.2,44.3v-3.7H21.8v3.7H44.2z M44.2,44.3"/>
	<path class="st69" d="M33.1,24.4H3.4c0,0,8-22.7,31-21.8v21.7L33.1,24.4z"/>
	<rect x="3.9" y="24.3" class="st69" width="29.2" height="39"/>
</g>
<g id="menu" class="st0">
	<path class="st85" d="M0.5,8v38.1c0,0.4,0.3,0.8,0.7,1L32,58V16.3L3.2,6.1C1.9,5.7,0.5,6.6,0.5,8z"/>
	<path class="st86" d="M63.5,8v38.1c0,0.4-0.3,0.8-0.7,1L32,58V16.3L60.8,6.1C62.1,5.7,63.5,6.6,63.5,8z"/>
	<path class="st79" d="M41.4,56.5c0.3,0.3,1.4-0.1,1.7-0.5l0.6-0.6c0.3-0.3,0.8-1.4,0.5-1.7l-8.5-8.1l-2.2,2.3L41.4,56.5z"/>
	<path class="st79" d="M27.3,37.8c1.1-1.9,0.5-4.3-1.2-6c-2.1-2.1-6.5-4.1-8.6-2c-2.1,2.1,0,6.5,2,8.6c1.7,1.7,4,2.3,5.9,1.3l4,4.3
		l2.1-2L27.3,37.8z"/>
	<path class="st79" d="M37.8,37.8l-16.9,16c-0.3,0.3,0.1,1.4,0.5,1.7l0.6,0.6c0.3,0.3,0.9,0.6,1.3,0.6c0.1,0,0.3,0,0.4-0.1l16.1-17
		c0.4,0.2,0.9,0.3,1.4,0.4c1.4,0.1,2.9-0.5,4.1-1.7c4.1-4.1,4.8-5,3.5-6.5l-4.8,4.6c-0.1,0.1-0.3,0.2-0.4,0.2
		c-0.1,0-0.3-0.1-0.4-0.1L43,36.3c-0.1-0.1-0.1-0.2-0.1-0.4c0-0.2,0.1-0.3,0.2-0.4l4.3-5.1c-0.1-0.1-0.2-0.2-0.3-0.3
		c-0.2-0.2-0.4-0.4-0.5-0.5l-5.1,4.4c-0.1,0.1-0.2,0.2-0.4,0.2c-0.1,0-0.3-0.1-0.4-0.1l-0.1-0.1c-0.1-0.1-0.1-0.2-0.1-0.4
		c0-0.2,0.1-0.3,0.2-0.4l4.6-4.8c-1.5-1.1-2.4-0.2-6.3,3.7c-1.3,1.3-1.9,2.9-1.6,4.5C37.3,36.9,37.5,37.4,37.8,37.8z"/>
</g>
<g id="live-music" class="st0">
	<path class="st87" d="M31.7,7c-1.4,4.9-4,20.3,18.5,19.4c0.5,0,0.6-0.7,0.1-0.9C45.9,23.8,35.7,18.6,32.5,7
		C32.4,6.6,31.8,6.6,31.7,7z"/>
	<path class="st87" d="M35.8,3.5C36.9,7.9,41,18,54.4,22.2c1.1,0.3,2.3-0.4,2.5-1.5c1-6,2.1-22.9-19.4-19.6
		C36.2,1.3,35.5,2.4,35.8,3.5z"/>
	<path class="st88" d="M6.4,50c0,0-1,11.2,8.5,9.8c2.5-0.4,5.5-2.3,7.8-4.2c4.9-4.1,9-6,12.3-6.8c3.6-0.9,7.1,0.2,10.6,2
		c4.8,2.4,17.7,11.8,15.8,12.6"/>
	<path class="st89" d="M27,18.4L2.9,48c-0.1,0.1-0.1,0.2-0.1,0.3c-0.2,1-0.9,6.6,5.8,5.3c0.1,0,0.2-0.1,0.3-0.1l29.9-24.6
		c0.3-0.3,0.3-1.1-0.1-1c-3,0.7-9.5-3.1-10.6-9.3C27.9,18,27.2,18,27,18.4z"/>
	<path class="st90" d="M53.1,4.1L4.4,53.2l-1.9-4.6l27.2-33.4l2.7-8.6l4.8-5.4C37.3,1.2,47.3-1.7,53.1,4.1z"/>
</g>
<g id="events" class="st0">
	<g class="st2">
		<g>
			<path class="st91" d="M63.5,23.5v-9.4h-63v9.4c4.5,0,8.3,3.7,8.3,8.5S5,40.5,0.5,40.5v9.5h63v-9.5c-4.7,0-8.5-3.7-8.5-8.5
				S58.8,23.5,63.5,23.5z M16.8,22.4h9.3V31h-9.3L16.8,22.4z M44.2,37.5H15.7v-1h28.5V37.5z M44.2,30.6H31.4v-1h12.8V30.6z
				 M44.2,23.7H31.4v-1h12.8V23.7z"/>
		</g>
	</g>
	<g class="st92">
		<g>
			<path class="st93" d="M63.5,23.3v-9.3L35.9,29.6h8.3v1h-10l-10.4,5.9h20.5v1h-22L0.5,49.7h63v-9.3c-4.7,0-8.5-3.7-8.5-8.5
				S58.8,23.3,63.5,23.3z"/>
		</g>
	</g>
</g>
</svg>
