<?xml version="1.0" encoding="utf-8"?>
<!-- Generator: Adobe Illustrator 21.0.0, SVG Export Plug-In . SVG Version: 6.00 Build 0)  -->
<svg version="1.1" id="social" xmlns="http://www.w3.org/2000/svg" xmlns:xlink="http://www.w3.org/1999/xlink" x="0px" y="0px"
	 viewBox="0 0 64 64" style="enable-background:new 0 0 64 64;" xml:space="preserve">
<style type="text/css">
	g:target{display:inline;}
	.st0{display:none;fill:#BDBDBD;}
</style>
<g class="st0" id="facebook">
	<path d="M41.8,11.3c1.8,0,3.9,0,5.8,0c0.3,0,0.5,0,0.8,0V1c-1,0-2.1-0.3-3.2-0.3c-2.1,0-3.9-0.3-6-0.3
		c-3.1,0-6,0.8-8.4,2.6c-2.9,2.1-4.5,5-5,8.4c-0.3,1.6-0.3,2.9-0.5,4.5c0,2.4,0,4.5,0,6.8v0.8h-9.7v11.3h9.7v28.6h11.8V35.1h9.7
		c0.5-3.7,1-7.6,1.6-11.3c-0.8,0-1.6,0-2.1,0c-2.6,0-8.9,0-8.9,0s0-5.5,0-8.1C37.4,12.3,39.2,11.3,41.8,11.3z"/>
</g>

<g id="googleplus" class="st0">
	<path d="M22.4,29v0.2c0,1.9,0,6.2,0,6.2s8.4,0,8.8,0c0,0.6-0.9,3.2-3.2,5c-1.5,1.1-3,1.5-4.7,1.5c-1.3,0-2.4,0-3.4-0.4
		c-3.7-1.1-6.5-4.5-6.7-8.4c0-1.1,0-1.9,0.2-3c1.1-4.7,5.6-8.4,10.8-7.5c2.4,0.4,3.7,1.3,4.7,2.4c1.5-1.5,3.2-3.2,4.7-4.7
		c-0.4-0.2-1.3-1.3-2.8-2.2c-2.4-1.3-5-2.2-7.8-2.2c-0.4,0-1.1,0-1.5,0c-0.9,0-1.7,0.2-2.8,0.4c-3.4,0.9-6.5,2.8-8.8,5.6
		c-2.2,2.8-3.4,5.8-3.7,9.3c0,1.5,0,3,0.4,4.3c0.9,4.1,3,7.3,6.5,9.7c2.6,1.9,5.6,3,8.8,3c1.7,0,3.7,0,5.4-0.4c3.2-0.9,6-2.6,8-5.4
		c3-3.9,3.7-9.1,2.8-13.8C32.8,29,27.6,29,22.4,29z"/>
	<polygon points="57.8,29.2 52.1,29.2 52.1,23.6 52.1,23.4 51.9,23.4 47.8,23.4 47.6,23.4 47.6,23.6 47.6,29.2 42,29.2
		42,29.2 42,29.2 42,33.5 42,33.5 42,33.5 47.6,33.5 47.6,39.1 47.6,39.3 47.8,39.3 51.9,39.3 52.1,39.3 52.1,39.1 52.1,33.5
		57.8,33.5 57.8,33.5 57.8,33.5 57.8,29.2 	"/>
</g>

<g id="pinterest" class="st0">
	<path d="M28.1,41.4c0,0.3,0,0.3-0.3,0.5c-2.4,9.2-2.6,11-5,15.2c-1.1,2.1-2.4,3.9-3.9,5.8
		c-0.3,0.3-0.3,0.5-0.5,0.5c-0.3,0-0.3-0.3-0.5-0.8c-0.3-2.6-0.5-5.5-0.5-8.4c0-3.7,0.5-5,5.3-24.4c0-0.3,0-0.5,0-0.8
		c-1.1-2.9-1.3-6-0.3-9.2c2.1-6.8,9.7-7.1,11-1.6c0.8,3.4-1.3,7.9-2.9,14.5c-1.3,5.5,5,9.5,10.5,5.3c5-3.7,7.1-12.6,6.6-18.7
		C46.8,7,33.1,4.1,24.5,8.3c-10,4.5-12.1,16.8-7.6,22.6c0.5,0.8,1.1,1.1,0.8,1.8c-0.3,1.1-0.5,2.4-0.8,3.4C16.6,37,15.8,37.2,15,37
		c-1.6-0.8-3.2-1.8-4.2-3.2C7.1,29.1,5.8,19.9,11,12c5.5-8.7,16-12.4,25.5-11.3C47.9,2,54.9,9.6,56.3,18.5c0.5,3.9,0.3,13.9-5.5,20.8
		c-6.6,7.9-16.8,8.4-21.8,3.7C28.9,42.2,28.4,41.7,28.1,41.4z"/>
</g>

<g id="twitter" class="st0">
	<path d="M19.8,46c-6.8-0.3-11-5-12-8.9c1.8,0.3,3.7,0.3,5.5-0.3c0,0,0,0,0.3,0c-3.7-0.8-6.5-2.9-8.4-6
		c-1.3-2.1-1.8-4.4-1.8-6.8c1.8,1,3.7,1.6,5.8,1.6c-2.6-2.1-4.4-4.4-5.2-7.8s-0.3-6.3,1.3-9.4c7.1,8.1,15.9,12.8,26.7,13.6
		c0-0.5-0.3-1-0.3-1.3c-0.3-3.1,0.3-5.8,1.8-8.4c2.1-3.1,5-5.2,8.6-5.8c4.4-0.8,8.1,0.5,11.2,3.7c0.3,0.3,0.3,0.3,0.8,0.3
		c2.6-0.5,5.2-1.6,7.6-2.9c0,0,0,0,0.3,0l0,0c-1,2.9-2.9,5.2-5.5,7.1c2.6-0.3,5-1,7.1-1.8l0,0c-0.5,0.5-1,1.3-1.6,1.8
		c-1.3,1.6-2.9,3.1-4.7,4.4C57,19,57,19.3,57,19.6c0,1.8,0,3.9-0.3,5.8c-0.5,3.9-1.6,7.8-3.4,11.5c-1.8,3.7-4.2,7.1-7.1,10.2
		c-5,5-10.7,8.4-17.8,9.9c-2.4,0.5-4.7,0.8-7.1,0.8C14.1,58,7,56.1,0.8,52.2c0,0-0.3,0-0.3-0.3c4.4,0.5,8.9,0,12.8-1.8
		C15.9,48.8,18,47.5,19.8,46z"/>
</g>

<g id="instagram" class="st0">
	<path d="M63,16.4c-0.5-4.2-2.1-7.9-5-10.8C54.8,2.5,50.9,1.2,46.4,1c-7.3-0.5-24.9-0.8-31.2,0.3
		C8.2,2.3,3.7,6.5,1.6,13.5C0,18.8,0.3,43.7,1.3,48.9c1.3,7.3,5.5,11.8,12.6,13.6c5,1.3,29.4,1,34.9,0.3c7.3-1,11.8-5.5,13.9-12.6
		C64,44.8,63.5,21.4,63,16.4z M57.2,47.9c-0.8,5.5-4.5,8.9-10,9.4c-5,0.5-27.8,0.8-32.5-0.5c-4.5-1.3-7.1-4.5-7.9-8.9
		c-0.8-4.5-0.8-26,0-31.7c0.8-5.5,4.5-8.9,10-9.4c5.5-0.5,25.7-0.8,30.9,0c5.5,0.8,8.9,4.5,9.4,10C58,22.2,58,42.4,57.2,47.9z
		 M32,16.2c-8.9,0-16.3,7.3-16.3,16.3s7.1,16,16,16c8.9,0,16.3-7.1,16.3-16C48.3,23.2,40.9,16.2,32,16.2z M32,42.7
		c-5.8,0-10.2-4.7-10.2-10.5s4.7-10.5,10.5-10.5s10.5,4.7,10.5,10.5C42.5,37.9,37.8,42.7,32,42.7z M52.5,15.4c0,2.1-1.6,3.7-3.7,3.7
		c-2.1,0-3.7-1.6-3.7-3.7s1.6-3.9,3.9-3.7C50.9,11.7,52.5,13.3,52.5,15.4z"/>

</g>
</svg>
