<?xml version="1.0" encoding="UTF-8"?>
<svg width="18px" height="15px" viewBox="0 0 18 15" version="1.1" xmlns="http://www.w3.org/2000/svg" xmlns:xlink="http://www.w3.org/1999/xlink">
    <!-- Generator: Sketch 47.1 (45422) - http://www.bohemiancoding.com/sketch -->
    <title>new year</title>
    <desc>Created with Sketch.</desc>
    <defs>
        <polygon id="path-1" points="2.52901356e-05 0.125255357 8.33295001 0.125255357 8.33295001 13.4773349 2.52901356e-05 13.4773349 2.52901356e-05 0.125255357"></polygon>
    </defs>
    <g id="Page-1" stroke="none" stroke-width="1" fill="none" fill-rule="evenodd">
        <g id="listing-with-banner" transform="translate(-19.000000, -740.000000)">
            <g id="restaurant-name-address-copy" transform="translate(10.000000, 477.000000)">
                <g id="deal1-copy" transform="translate(0.000000, 255.000000)">
                    <g id="new-year" transform="translate(9.000000, 8.000000)">
                        <path d="M4.11052768,6.83048638 C5.34583795,7.1677654 6.69619554,6.40630112 6.75647813,2.93846585 L5.30045357,2.54104219 L3.84429107,2.14348058 C2.10754554,5.1536096 2.87507946,6.49320737 4.11052768,6.83048638" id="Fill-1" fill="#EA2225"></path>
                        <g id="Group-5" transform="translate(0.000000, 0.012691)">
                            <mask id="mask-2" fill="white">
                                <use xlink:href="#path-1"></use>
                            </mask>
                            <g id="Clip-4"></g>
                            <path d="M5.91690857,7.1778217 C5.21738223,7.69719 4.44667554,7.63580384 3.92316884,7.49289134 C3.39966214,7.34997884 2.70592955,7.0114583 2.37292688,6.21040339 C2.02543982,5.37472393 1.96295009,3.77606277 3.58340679,0.8798775 L7.62578893,1.98344893 C7.5243983,5.29443911 6.64623134,6.63624402 5.91690857,7.1778217 M8.07549429,1.38531321 L3.505605,0.137725714 C3.35138089,0.0956520536 3.18805232,0.162418125 3.10859518,0.300226607 C1.58497688,2.94093509 1.11940768,5.01854625 1.7249925,6.47539848 C2.03275098,7.21548107 2.60964295,7.75623107 3.40380054,8.05502304 L2.46783402,11.4293306 L0.125641607,11.88414 C-0.023754375,11.9131087 -0.0473432143,12.1524458 0.0952933929,12.1913467 L4.78892063,13.4727311 C4.93155723,13.511632 5.03474116,13.2940904 4.9213492,13.1932516 L3.14349563,11.613765 L4.07946214,8.23945741 C4.91596929,8.38581857 5.69053848,8.21407527 6.33667955,7.73429759 C7.60840768,6.79005429 8.28006884,4.76872527 8.33290232,1.72631679 C8.3355233,1.56781634 8.22985634,1.42738687 8.07549429,1.38531321" id="Fill-3" fill="#EA2225" mask="url(#mask-2)"></path>
                        </g>
                        <path d="M11.8143805,3.44339116 L10.3783582,3.90689116 C10.5990725,7.36838089 11.9833649,8.06735545 13.2018457,7.67407018 C14.4203265,7.28078491 15.1248189,5.90766616 13.2504028,2.97989116 L11.8143805,3.44339116 Z" id="Fill-6" fill="#EA2225"></path>
                        <path d="M11.4141565,8.11611951 C10.6602793,7.60833871 9.72100205,6.30791772 9.466215,3.00520433 L13.4530047,1.71844004 C15.2060279,4.53765121 15.2177534,6.13741594 14.9095811,6.98785567 C14.6138239,7.80339496 13.936369,8.17336728 13.4201735,8.34000656 C12.90384,8.50664585 12.1368579,8.60293246 11.4141565,8.11611951 M17.4173092,12.5533043 L15.0563561,12.2058173 L13.9649239,8.87772174 C14.7445971,8.54306371 15.2958311,7.97665567 15.5688271,7.22305433 C16.1064043,5.74026817 15.5451003,3.6861079 13.9006409,1.1175454 C13.8148382,0.98359942 13.6486128,0.924282455 13.4964579,0.973391384 L8.98919625,2.42817442 C8.83704134,2.47728335 8.73785786,2.62226504 8.74792795,2.78062754 C8.94174268,5.81724228 9.70624179,7.80587799 11.0204574,8.69121817 C11.6881181,9.14092353 12.4698605,9.2772146 13.2986427,9.09291817 L14.3900748,12.4210137 L12.6872641,14.0798195 C12.5787003,14.1857624 12.6918163,14.3983378 12.8325217,14.3528155 L17.4618659,12.8587177 C17.6024333,12.8133333 17.5678087,12.5753758 17.4173092,12.5533043" id="Fill-8" fill="#EA2225"></path>
                    </g>
                </g>
            </g>
        </g>
    </g>
</svg>