<?xml version="1.0" encoding="UTF-8"?>
<svg width="18px" height="20px" viewBox="0 0 18 20" version="1.1" xmlns="http://www.w3.org/2000/svg" xmlns:xlink="http://www.w3.org/1999/xlink">
    <!-- Generator: Sketch 47.1 (45422) - http://www.bohemiancoding.com/sketch -->
    <title>Icons/Gray/Live Music</title>
    <desc>Created with Sketch.</desc>
    <defs></defs>
    <g id="Symbols" stroke="none" stroke-width="1" fill="none" fill-rule="evenodd">
        <g id="Icons/Gray/Live-Music-Copy" transform="translate(-2.000000, -1.000000)">
            <g id="Icons/Gray/Live-Music">
                <g id="xmass-tree" transform="translate(2.000000, 1.000000)" fill="#008948">
                    <path d="M7.9660378,2.5468629 L7.74179269,3.92997676 C7.73823324,3.95414407 7.74653862,3.97583269 7.76433585,3.98760651 C7.7738277,3.99566228 7.78569252,4 7.7969641,4 C7.80586272,4 7.81535457,3.99628195 7.82306671,3.99194423 L9.01488793,3.35677769 L10.2096754,3.98140976 C10.2280658,3.99194423 10.250609,3.99008521 10.267813,3.97707204 C10.2862035,3.96405887 10.2939156,3.94113091 10.2903561,3.91882262 L10.0613651,2.51587916 L10.9826684,1.59628195 C10.9986859,1.57955074 11.0040251,1.55662277 10.9969062,1.53679318 C10.991567,1.5144849 10.9731766,1.49899303 10.9518199,1.49589466 L9.66626658,1.27033308 L9.05700805,0.0322230829 C9.04810943,0.0123934934 9.02853248,0 9.00658256,0 C8.98581912,0 8.96624217,0.0123934934 8.95615707,0.0328427576 L8.34749178,1.26847405 L7.04770068,1.50828815 C7.02634401,1.51138652 7.00914002,1.52687839 7.00202112,1.54732765 C6.99668196,1.56963594 7.00202112,1.5925639 7.01685215,1.60867545 L7.9660378,2.5468629 Z" id="Fill-1"></path>
                    <path d="M14.1134476,17.1052787 C14.0254036,17.3693702 13.772452,17.5384615 13.500401,17.5384615 C13.4370466,17.5384615 13.3741581,17.5289161 13.3080087,17.5070978 C12.9716715,17.406643 12.7797451,17.0607331 12.8868885,16.7393687 C12.9926344,16.411186 13.350866,16.2343674 13.6918616,16.3366404 C14.0268012,16.4361861 14.2201251,16.7816415 14.1134476,17.1052787 M11.5418987,13.4135051 C11.4543494,13.6809029 11.2019466,13.8461538 10.9295192,13.8461538 C10.8647886,13.8461538 10.8023864,13.8357122 10.7362587,13.8161908 C10.4000321,13.7144979 10.2086344,13.3694685 10.3152769,13.0480463 C10.4233165,12.7193604 10.7800334,12.5404899 11.1199855,12.6453607 C11.4548151,12.7447836 11.649007,13.0889051 11.5418987,13.4135051 M10.7363943,8.8899249 C10.3984635,8.79046884 10.2073577,8.44668692 10.3164278,8.12379531 C10.4203707,7.79636234 10.7792766,7.6192488 11.1190719,7.72097555 C11.4551384,7.81952334 11.6490408,8.16784663 11.5418351,8.48982996 C11.4528078,8.75777095 11.2020398,8.92307692 10.9293645,8.92307692 C10.8650411,8.92307692 10.8011839,8.91217763 10.7363943,8.8899249 M10.2559338,10.9523505 C10.1671942,11.2173302 9.91652738,11.3846154 9.64344698,11.3846154 C9.57803576,11.3846154 9.51628391,11.373463 9.45087269,11.3533888 C9.11375333,11.2516794 8.92300872,10.906849 9.02958784,10.5861075 C9.13616696,10.2582286 9.49387027,10.0802372 9.83419158,10.1828388 C10.168109,10.2809794 10.3638852,10.626256 10.2559338,10.9523505 M8.97063443,15.8726878 C8.88232612,16.1417585 8.6306261,16.3076923 8.35716896,16.3076923 C8.29232421,16.3076923 8.2291859,16.2985431 8.16306132,16.2748382 C7.82689248,16.1758602 7.63662433,15.8294369 7.74455671,15.5071343 C7.84907621,15.1798413 8.20785539,15.0026789 8.54871694,15.1066474 C8.88360595,15.2052096 9.07728698,15.5508011 8.97063443,15.8726878 M7.07211262,8.92307692 C7.00639928,8.92307692 6.945473,8.91288645 6.87975965,8.89208091 C6.54161879,8.79017621 6.35187695,8.44412485 6.45806275,8.12397426 C6.56468374,7.79490701 6.92197286,7.61657379 7.26316003,7.72314912 C7.59868976,7.81953398 7.79147792,8.16643455 7.68485693,8.48913276 C7.5973842,8.75578338 7.34541051,8.92307692 7.07211262,8.92307692 M7.68392957,13.4126325 C7.59678584,13.6788734 7.34555684,13.8461538 7.0713729,13.8461538 C7.0071841,13.8461538 6.94469567,13.8353883 6.87838142,13.8142712 C6.54128396,13.7115842 6.3521183,13.3654296 6.45796605,13.0457749 C6.5638138,12.717839 6.92259092,12.5414492 7.2635142,12.6449643 C7.5989113,12.7422685 7.79275296,13.0867669 7.68392957,13.4126325 M6.39995746,17.1044899 C6.30974887,17.3710168 6.05912007,17.5384615 5.78538366,17.5384615 C5.71961582,17.5384615 5.65829175,17.5276447 5.59296829,17.5055783 C5.25657468,17.4064961 5.06504806,17.0612225 5.17303175,16.7375827 C5.27790479,16.4117794 5.63740602,16.2326525 5.97602152,16.3377922 C6.31197076,16.4355765 6.5048305,16.7812827 6.39995746,17.1044899 M17.9001544,17.3128333 C17.1269825,16.7371769 15.6167857,16.018584 13.5887938,14.2542515 C14.3126743,14.6417877 14.7051283,14.68002 15.2294956,14.5027612 C16.1641557,14.1860416 14.7633391,14.0322436 14.4666514,13.4140104 C15.5430832,13.6651269 16.4908878,13.2015606 16.1988945,12.9573954 C15.6989382,12.5368404 14.7098227,12.3013643 12.9926018,10.545721 C12.9921323,10.5379007 12.9541075,10.5135711 12.8973049,10.4809868 C13.3906891,10.6647624 13.9709201,10.7125527 14.3981128,10.463174 C14.7614614,10.2507242 14.0328865,10.2107541 13.5333996,9.61858834 C14.8520638,10.0408812 15.7172464,9.77455864 15.0797434,9.30968896 C14.5027985,8.88739612 13.4883331,8.17705787 11.9884641,6.86586468 C10.5984447,5.64938327 9.79428955,4.58452757 9.37179124,4.16831714 C9.17368648,3.96064639 8.99154276,3.90025677 8.71222444,4.24956072 C8.34746756,4.63101454 7.68602298,5.42085854 6.26314256,6.69599174 C4.55484106,8.22788941 3.53145626,8.92823514 3.0775053,9.30968896 C2.81743412,9.52604887 3.4216067,9.92792219 4.37692233,9.70678325 C3.92813523,10.447968 3.18266044,10.3576008 3.71782496,10.632178 C4.14079272,10.8541859 4.45438035,10.9097965 5.08953614,10.6069795 C3.44413995,11.9759555 2.50760202,12.5007804 1.88324341,12.9573954 C1.16593517,13.4822202 2.4334301,13.8015466 3.92109359,13.325381 C3.35917084,13.992708 2.53576858,14.0404983 2.94559194,14.2807534 C3.45869267,14.5761846 3.76617755,14.6209337 4.34453079,14.377203 C2.34235824,16.259708 0.634056738,16.9574469 0.0650923469,17.4353504 C-0.286989579,17.7294782 0.843897566,18.2282356 2.14002849,17.9280253 C2.02032064,18.4580637 1.17109904,18.7904238 1.78888545,18.9759372 C2.51792976,19.1918626 3.12773566,19.1644918 4.11403449,18.588401 C3.63144753,19.162754 3.82814397,19.5181403 4.15346767,19.6571668 C5.00221983,20.0268902 6.28379804,19.0702145 6.36735881,19.0002668 C6.23591489,19.7979311 6.62743,19.9973471 7.15273623,19.9999539 C7.43627954,20.0021261 7.73953944,19.9273994 7.95829967,19.8166127 C7.95829967,19.8166127 8.28878724,19.6445675 8.57467776,19.3613011 L8.76574089,19.1649263 L8.95164015,19.3613011 C9.3051304,19.7353692 9.56003771,19.8930773 9.8168228,19.9382609 C10.0895689,19.9860512 10.2679571,19.9665006 10.3618456,19.9591148 C11.175859,19.9082833 11.1406508,19.0841171 11.1406508,19.0841171 C11.8490397,19.9847478 12.6832391,19.9534669 13.3423365,19.7557887 C14.2924882,19.4725223 13.6911323,18.6726857 13.6911323,18.6726857 C14.40046,19.2466043 15.4407448,19.4347245 16.35428,18.9998324 C17.0499939,18.6692101 16.0430396,18.5888354 15.7839073,17.987546 C17.7043968,18.2082505 18.2517668,17.5761146 17.9001544,17.3128333" id="Fill-3"></path>
                </g>
                <rect id="Shape" x="0" y="0" width="22" height="22"></rect>
            </g>
        </g>
    </g>
</svg>