<?xml version="1.0" encoding="utf-8"?>
<!-- Generator: Adobe Illustrator 21.1.0, SVG Export Plug-In . SVG Version: 6.00 Build 0)  -->
<svg version="1.1" id="Layer_1" xmlns="http://www.w3.org/2000/svg" xmlns:xlink="http://www.w3.org/1999/xlink" x="0px" y="0px"
	 viewBox="0 0 30.1 30.1" style="enable-background:new 0 0 30.1 30.1;" xml:space="preserve">
<style type="text/css">
	.st0{fill:#121617;}
	.st1{fill:#FF4612;}
</style>
<g>
	<path class="st0" d="M16.3,1c-0.4-0.7-1-0.9-1.3-0.9v0h0h0h0h0h0v0c-0.3,0-0.9,0.2-1.3,0.9c0,0-1.3,2.2-0.6,4.5c0,0,0.2,0.8,1,1
		c0,0,0.5,0.1,0.5,0.6l-0.4,6H15h0h0.7l-0.4-6c0-0.5,0.5-0.6,0.5-0.6c0.8-0.2,1-1,1-1C17.7,3.1,16.3,1,16.3,1"/>
	<path class="st1" d="M25.9,6c0.2-0.8,0-1.3-0.3-1.6h0l0,0v0l0,0l0,0l0,0v0h0c-0.2-0.2-0.8-0.5-1.6-0.3c0,0-2.5,0.6-3.6,2.8
		c0,0-0.4,0.7,0,1.4c0,0,0.3,0.4,0,0.8l-4.5,4l0.5,0.5l0,0l0.5,0.5l4-4.5c0.3-0.3,0.8,0,0.8,0c0.8,0.4,1.4,0,1.4,0
		C25.3,8.5,25.9,6,25.9,6"/>
	<path class="st0" d="M29.1,16.3c0.7-0.4,0.9-1,0.9-1.3h0v0v0v0v0v0h0c0-0.3-0.2-0.9-0.9-1.3c0,0-2.2-1.3-4.5-0.6c0,0-0.8,0.2-1,1
		c0,0-0.1,0.5-0.6,0.5l-6-0.4V15v0l0,0.7l6-0.4c0.5,0,0.6,0.5,0.6,0.5c0.2,0.8,1,1,1,1C26.9,17.7,29.1,16.3,29.1,16.3"/>
	<path class="st0" d="M24,25.9c0.8,0.2,1.3,0,1.6-0.3l0,0l0,0h0l0,0l0,0h0l0,0v0c0.2-0.2,0.5-0.8,0.3-1.6c0,0-0.6-2.5-2.8-3.6
		c0,0-0.7-0.4-1.4,0c0,0-0.4,0.3-0.8,0l-4-4.5l-0.5,0.5l0,0L16,16.9l4.5,4c0.3,0.3,0,0.8,0,0.8c-0.4,0.8,0,1.4,0,1.4
		C21.6,25.3,24,25.9,24,25.9"/>
	<path class="st0" d="M13.7,29c0.4,0.7,1,0.9,1.3,0.9v0l0,0h0h0h0h0h0c0.3,0,0.9-0.2,1.3-0.9c0,0,1.3-2.2,0.6-4.5c0,0-0.2-0.8-1-1
		c0,0-0.5-0.1-0.5-0.6l0.4-6h-0.7h0h-0.7l0.4,6c0,0.5-0.5,0.6-0.5,0.6c-0.8,0.2-1,1-1,1C12.4,26.9,13.7,29,13.7,29"/>
	<path class="st0" d="M4.2,24c-0.2,0.8,0,1.3,0.3,1.6v0l0,0v0l0,0l0,0h0l0,0c0.3,0.2,0.8,0.5,1.6,0.3c0,0,2.5-0.6,3.6-2.8
		c0,0,0.4-0.7,0-1.4c0,0-0.3-0.4,0-0.8l4.5-4l-0.5-0.5l0,0l-0.5-0.5l-4,4.5c-0.3,0.3-0.8,0-0.8,0c-0.8-0.4-1.4,0-1.4,0
		C4.8,21.5,4.2,24,4.2,24"/>
	<path class="st0" d="M1,13.7c-0.7,0.4-0.9,1-0.9,1.3v0v0v0v0v0v0c0,0.3,0.2,0.9,0.9,1.3c0,0,2.2,1.3,4.5,0.6c0,0,0.8-0.2,1-1
		c0,0,0.1-0.5,0.6-0.5l6,0.4V15v0v-0.7l-6,0.4c-0.5,0-0.6-0.5-0.6-0.5c-0.2-0.8-1-1-1-1C3.2,12.4,1,13.7,1,13.7"/>
	<path class="st0" d="M6,4.2C5.3,4,4.7,4.2,4.5,4.4l0,0l0,0l0,0l0,0l0,0h0v0C4.2,4.7,4,5.2,4.2,6c0,0,0.6,2.5,2.8,3.6
		c0,0,0.7,0.4,1.4,0c0,0,0.4-0.3,0.8,0l4,4.5l0.5-0.5l0,0l0.5-0.5l-4.5-4c-0.3-0.3,0-0.8,0-0.8c0.4-0.8,0-1.4,0-1.4
		C8.5,4.7,6,4.2,6,4.2"/>
</g>
</svg>
